<svg xmlns="http://www.w3.org/2000/svg" xmlns:xlink="http://www.w3.org/1999/xlink" width="500" zoomAndPan="magnify" viewBox="0 0 375 374.999991" height="500" preserveAspectRatio="xMidYMid meet" version="1.0"><defs><g/></defs><path fill="#000000" d="M 193.195312 68.652344 L 178.613281 46.46875 L 198.433594 66.292969 L 215.265625 83.121094 C 214.855469 83.75 214.464844 84.386719 214.09375 85.039062 C 213.71875 85.6875 213.367188 86.351562 213.035156 87.019531 C 212.703125 87.691406 212.390625 88.371094 212.097656 89.0625 C 211.804688 89.75 211.535156 90.449219 211.285156 91.15625 C 211.03125 91.859375 210.804688 92.574219 210.59375 93.292969 C 210.386719 94.011719 210.199219 94.738281 210.03125 95.46875 C 209.867188 96.199219 209.722656 96.933594 209.597656 97.671875 C 209.476562 98.410156 209.375 99.152344 209.296875 99.898438 C 209.21875 100.640625 209.164062 101.386719 209.128906 102.136719 C 209.09375 102.886719 209.082031 103.632812 209.09375 104.382812 C 209.101562 105.132812 209.136719 105.878906 209.1875 106.625 C 209.242188 107.375 209.320312 108.117188 209.417969 108.859375 C 209.515625 109.601562 209.636719 110.34375 209.78125 111.078125 C 209.921875 111.8125 210.085938 112.542969 210.269531 113.269531 C 210.457031 113.996094 210.664062 114.714844 210.890625 115.429688 C 211.117188 116.140625 211.367188 116.847656 211.636719 117.546875 C 211.90625 118.246094 212.199219 118.933594 212.507812 119.617188 C 212.820312 120.296875 213.148438 120.96875 213.5 121.632812 C 213.851562 122.292969 214.222656 122.945312 214.609375 123.585938 C 215 124.226562 215.40625 124.851562 215.832031 125.46875 C 216.257812 126.085938 216.703125 126.6875 217.164062 127.277344 C 217.625 127.867188 218.105469 128.441406 218.601562 129.003906 C 219.097656 129.566406 219.609375 130.113281 220.136719 130.644531 C 220.667969 131.171875 221.210938 131.6875 221.769531 132.1875 C 222.328125 132.6875 222.898438 133.167969 223.488281 133.632812 C 224.074219 134.097656 224.675781 134.542969 225.289062 134.972656 C 225.902344 135.402344 226.527344 135.8125 227.167969 136.207031 C 227.804688 136.597656 228.453125 136.972656 229.113281 137.324219 C 229.773438 137.679688 230.445312 138.011719 231.125 138.328125 C 231.804688 138.640625 232.492188 138.9375 233.191406 139.207031 C 233.886719 139.480469 234.59375 139.734375 235.304688 139.964844 C 236.015625 140.199219 236.734375 140.410156 237.460938 140.597656 C 238.183594 140.785156 238.914062 140.953125 239.648438 141.101562 C 240.382812 141.246094 241.121094 141.371094 241.863281 141.472656 C 242.605469 141.574219 243.351562 141.65625 244.097656 141.714844 C 244.84375 141.769531 245.59375 141.808594 246.339844 141.820312 C 247.089844 141.835938 247.839844 141.828125 248.585938 141.796875 C 249.335938 141.765625 250.082031 141.714844 250.828125 141.636719 C 251.574219 141.5625 252.316406 141.46875 253.054688 141.347656 C 253.792969 141.230469 254.53125 141.089844 255.261719 140.925781 C 255.992188 140.765625 256.71875 140.582031 257.4375 140.375 C 258.160156 140.171875 258.871094 139.945312 259.578125 139.699219 C 260.285156 139.449219 260.984375 139.183594 261.675781 138.894531 C 262.367188 138.605469 263.050781 138.296875 263.722656 137.964844 C 264.394531 137.636719 265.058594 137.289062 265.710938 136.921875 C 266.363281 136.550781 267.003906 136.164062 267.632812 135.757812 C 268.261719 135.351562 268.878906 134.925781 269.484375 134.484375 C 270.085938 134.042969 270.675781 133.582031 271.253906 133.105469 C 271.832031 132.625 272.394531 132.132812 272.941406 131.621094 C 273.488281 131.109375 274.019531 130.582031 274.535156 130.039062 C 275.054688 129.496094 275.554688 128.941406 276.035156 128.367188 C 276.519531 127.796875 276.984375 127.210938 277.433594 126.609375 C 277.882812 126.011719 278.3125 125.398438 278.726562 124.773438 C 279.140625 124.148438 279.53125 123.511719 279.90625 122.863281 C 280.28125 122.214844 280.636719 121.554688 280.972656 120.882812 C 281.308594 120.214844 281.625 119.535156 281.917969 118.847656 C 282.214844 118.160156 282.488281 117.464844 282.746094 116.757812 C 283 116.054688 283.230469 115.34375 283.445312 114.625 C 283.65625 113.90625 283.847656 113.183594 284.015625 112.453125 C 284.183594 111.722656 284.332031 110.988281 284.457031 110.25 C 284.585938 109.511719 284.6875 108.769531 284.769531 108.027344 C 284.851562 107.28125 284.914062 106.535156 284.949219 105.789062 C 284.988281 105.039062 285.003906 104.289062 284.996094 103.542969 C 284.992188 102.792969 284.960938 102.042969 284.910156 101.296875 C 284.859375 100.550781 284.789062 99.804688 284.691406 99.0625 C 284.597656 98.320312 284.480469 97.578125 284.34375 96.84375 C 284.203125 96.105469 284.042969 95.375 283.859375 94.648438 C 283.679688 93.921875 283.476562 93.203125 283.25 92.488281 C 283.027344 91.773438 282.78125 91.066406 282.515625 90.367188 C 282.246094 89.664062 281.960938 88.972656 281.652344 88.292969 C 281.34375 87.609375 281.019531 86.933594 280.671875 86.273438 C 280.324219 85.609375 279.957031 84.957031 279.570312 84.3125 C 279.183594 83.671875 278.78125 83.042969 278.355469 82.421875 C 277.933594 81.804688 277.492188 81.199219 277.03125 80.609375 C 276.574219 80.015625 276.097656 79.4375 275.605469 78.875 C 275.109375 78.3125 274.601562 77.761719 274.074219 77.230469 C 273.550781 76.695312 273.007812 76.179688 272.453125 75.679688 C 271.894531 75.175781 271.324219 74.691406 270.738281 74.222656 C 270.15625 73.757812 269.554688 73.304688 268.945312 72.875 C 268.332031 72.441406 267.707031 72.027344 267.074219 71.632812 C 266.4375 71.238281 265.789062 70.863281 265.128906 70.503906 C 264.472656 70.148438 263.804688 69.8125 263.125 69.492188 C 262.445312 69.175781 261.757812 68.878906 261.0625 68.601562 C 260.367188 68.324219 259.664062 68.070312 258.953125 67.835938 C 258.242188 67.601562 257.523438 67.386719 256.800781 67.195312 C 256.074219 67 255.347656 66.832031 254.613281 66.679688 C 253.878906 66.53125 253.140625 66.402344 252.398438 66.296875 C 251.65625 66.191406 250.914062 66.109375 250.167969 66.046875 C 249.421875 65.984375 248.671875 65.945312 247.925781 65.929688 C 247.175781 65.910156 246.425781 65.917969 245.679688 65.941406 C 244.929688 65.96875 244.183594 66.019531 243.4375 66.089844 C 242.691406 66.160156 241.949219 66.253906 241.207031 66.371094 C 240.46875 66.484375 239.734375 66.621094 239 66.78125 C 238.269531 66.9375 237.542969 67.121094 236.820312 67.320312 C 236.097656 67.523438 235.382812 67.746094 234.675781 67.988281 C 233.96875 68.234375 233.269531 68.5 232.574219 68.785156 L 251 96.800781 L 226.289062 72.097656 L 209.460938 55.269531 C 210.011719 54.289062 210.507812 53.285156 210.945312 52.25 C 211.378906 51.214844 211.753906 50.160156 212.070312 49.082031 C 212.382812 48.003906 212.636719 46.910156 212.824219 45.804688 C 213.011719 44.695312 213.136719 43.582031 213.195312 42.460938 C 213.253906 41.339844 213.25 40.21875 213.179688 39.097656 C 213.109375 37.976562 212.972656 36.863281 212.773438 35.757812 C 212.574219 34.652344 212.3125 33.5625 211.988281 32.488281 C 211.664062 31.414062 211.277344 30.359375 210.832031 29.332031 C 210.386719 28.300781 209.878906 27.300781 209.316406 26.328125 C 208.753906 25.355469 208.140625 24.417969 207.46875 23.519531 C 206.796875 22.617188 206.078125 21.757812 205.308594 20.941406 C 204.539062 20.125 203.722656 19.351562 202.863281 18.628906 C 202.003906 17.90625 201.105469 17.234375 200.171875 16.617188 C 199.234375 15.996094 198.265625 15.433594 197.261719 14.925781 C 196.261719 14.417969 195.234375 13.96875 194.179688 13.582031 C 193.125 13.191406 192.054688 12.867188 190.960938 12.601562 C 189.871094 12.335938 188.769531 12.136719 187.652344 12 C 186.539062 11.863281 185.421875 11.789062 184.296875 11.78125 C 183.175781 11.773438 182.054688 11.832031 180.9375 11.953125 C 179.820312 12.074219 178.714844 12.261719 177.621094 12.511719 C 176.527344 12.761719 175.449219 13.070312 174.390625 13.445312 C 173.332031 13.820312 172.296875 14.253906 171.289062 14.746094 C 170.28125 15.242188 169.304688 15.792969 168.359375 16.398438 C 167.414062 17.003906 166.507812 17.664062 165.636719 18.375 C 164.769531 19.085938 163.945312 19.84375 163.164062 20.652344 C 162.382812 21.460938 161.648438 22.308594 160.96875 23.199219 C 160.285156 24.089844 159.65625 25.019531 159.078125 25.984375 C 158.503906 26.945312 157.984375 27.941406 157.523438 28.964844 C 157.0625 29.988281 156.664062 31.035156 156.324219 32.105469 C 155.984375 33.175781 155.707031 34.265625 155.492188 35.367188 C 155.28125 36.46875 155.128906 37.578125 155.042969 38.699219 C 154.957031 39.820312 154.9375 40.941406 154.980469 42.0625 C 155.027344 43.183594 155.132812 44.300781 155.308594 45.410156 C 155.480469 46.519531 155.714844 47.613281 156.015625 48.695312 C 156.316406 49.777344 156.675781 50.839844 157.097656 51.882812 C 157.523438 52.921875 158.003906 53.933594 158.542969 54.917969 C 159.082031 55.902344 159.675781 56.855469 160.324219 57.769531 C 160.976562 58.6875 161.675781 59.5625 162.425781 60.398438 C 163.175781 61.234375 163.972656 62.023438 164.8125 62.765625 C 165.65625 63.507812 166.539062 64.199219 167.460938 64.839844 C 168.382812 65.484375 169.335938 66.070312 170.328125 66.601562 C 171.316406 67.128906 172.332031 67.601562 173.378906 68.015625 C 174.421875 68.429688 175.488281 68.78125 176.570312 69.070312 C 177.65625 69.359375 178.753906 69.585938 179.863281 69.75 C 180.976562 69.914062 182.09375 70.011719 183.214844 70.046875 C 184.335938 70.078125 185.457031 70.046875 186.578125 69.953125 C 187.695312 69.859375 188.804688 69.699219 189.90625 69.472656 C 191.007812 69.25 192.089844 68.964844 193.15625 68.613281 Z M 193.195312 68.652344 " fill-opacity="1" fill-rule="nonzero"/><path fill="#000000" d="M 335.980469 139.132812 C 334.832031 137.984375 333.59375 136.9375 332.269531 135.992188 C 330.941406 135.050781 329.546875 134.222656 328.085938 133.511719 C 326.621094 132.800781 325.109375 132.21875 323.546875 131.761719 C 321.984375 131.304688 320.398438 130.980469 318.78125 130.792969 C 317.167969 130.601562 315.546875 130.546875 313.921875 130.625 C 312.296875 130.707031 310.691406 130.921875 309.101562 131.273438 C 307.511719 131.621094 305.964844 132.101562 304.457031 132.710938 C 302.949219 133.320312 301.5 134.050781 300.113281 134.902344 C 298.726562 135.753906 297.421875 136.714844 296.199219 137.785156 C 294.972656 138.855469 293.84375 140.019531 292.816406 141.28125 C 291.785156 142.539062 290.867188 143.875 290.058594 145.289062 C 289.253906 146.699219 288.570312 148.171875 288.011719 149.699219 C 287.449219 151.226562 287.023438 152.789062 286.722656 154.386719 C 286.425781 155.988281 286.261719 157.601562 286.234375 159.226562 C 286.207031 160.851562 286.3125 162.46875 286.554688 164.078125 C 286.800781 165.6875 287.175781 167.265625 287.679688 168.808594 L 309.863281 154.226562 L 273.210938 190.878906 C 272.582031 190.46875 271.945312 190.078125 271.296875 189.707031 C 270.644531 189.335938 269.984375 188.984375 269.3125 188.652344 C 268.640625 188.320312 267.960938 188.007812 267.273438 187.714844 C 266.582031 187.421875 265.886719 187.152344 265.179688 186.898438 C 264.472656 186.648438 263.761719 186.417969 263.042969 186.210938 C 262.324219 186.003906 261.597656 185.816406 260.867188 185.648438 C 260.140625 185.484375 259.402344 185.339844 258.664062 185.21875 C 257.925781 185.09375 257.183594 184.996094 256.441406 184.914062 C 255.695312 184.835938 254.949219 184.78125 254.203125 184.746094 C 253.453125 184.710938 252.703125 184.699219 251.957031 184.710938 C 251.207031 184.722656 250.460938 184.753906 249.710938 184.808594 C 248.964844 184.863281 248.222656 184.9375 247.480469 185.035156 C 246.738281 185.136719 245.996094 185.253906 245.261719 185.398438 C 244.527344 185.539062 243.796875 185.703125 243.070312 185.890625 C 242.347656 186.074219 241.625 186.28125 240.914062 186.507812 C 240.199219 186.738281 239.496094 186.984375 238.796875 187.257812 C 238.097656 187.527344 237.40625 187.816406 236.726562 188.125 C 236.042969 188.4375 235.375 188.769531 234.710938 189.117188 C 234.050781 189.46875 233.398438 189.839844 232.757812 190.226562 C 232.117188 190.617188 231.492188 191.023438 230.875 191.449219 C 230.257812 191.875 229.65625 192.320312 229.066406 192.78125 C 228.476562 193.242188 227.902344 193.722656 227.339844 194.21875 C 226.78125 194.714844 226.234375 195.226562 225.703125 195.753906 C 225.171875 196.28125 224.65625 196.824219 224.160156 197.382812 C 223.660156 197.941406 223.179688 198.515625 222.714844 199.101562 C 222.25 199.691406 221.800781 200.289062 221.375 200.902344 C 220.945312 201.519531 220.535156 202.144531 220.140625 202.78125 C 219.75 203.417969 219.375 204.070312 219.023438 204.726562 C 218.667969 205.386719 218.335938 206.058594 218.019531 206.738281 C 217.707031 207.417969 217.414062 208.105469 217.140625 208.804688 C 216.867188 209.5 216.613281 210.207031 216.382812 210.917969 C 216.152344 211.628906 215.941406 212.347656 215.75 213.074219 C 215.5625 213.796875 215.394531 214.527344 215.25 215.261719 C 215.105469 215.996094 214.980469 216.734375 214.878906 217.476562 C 214.773438 218.21875 214.695312 218.960938 214.636719 219.707031 C 214.578125 220.453125 214.542969 221.203125 214.527344 221.949219 C 214.515625 222.699219 214.523438 223.449219 214.554688 224.195312 C 214.585938 224.945312 214.636719 225.691406 214.710938 226.4375 C 214.785156 227.179688 214.882812 227.921875 215 228.664062 C 215.121094 229.402344 215.261719 230.136719 215.421875 230.867188 C 215.585938 231.597656 215.769531 232.324219 215.972656 233.046875 C 216.179688 233.765625 216.40625 234.480469 216.652344 235.1875 C 216.898438 235.890625 217.167969 236.589844 217.457031 237.28125 C 217.746094 237.972656 218.054688 238.65625 218.382812 239.328125 C 218.710938 240 219.0625 240.664062 219.429688 241.3125 C 219.796875 241.964844 220.183594 242.605469 220.589844 243.234375 C 220.996094 243.863281 221.421875 244.480469 221.863281 245.085938 C 222.304688 245.691406 222.765625 246.28125 223.246094 246.855469 C 223.722656 247.433594 224.214844 247.996094 224.726562 248.542969 C 225.238281 249.089844 225.765625 249.621094 226.308594 250.136719 C 226.851562 250.65625 227.40625 251.152344 227.980469 251.636719 C 228.550781 252.121094 229.136719 252.585938 229.734375 253.035156 C 230.335938 253.484375 230.949219 253.914062 231.574219 254.328125 C 232.199219 254.738281 232.835938 255.132812 233.484375 255.507812 C 234.132812 255.882812 234.789062 256.238281 235.460938 256.574219 C 236.128906 256.910156 236.808594 257.222656 237.496094 257.519531 C 238.183594 257.816406 238.878906 258.089844 239.585938 258.34375 C 240.289062 258.597656 241 258.832031 241.71875 259.042969 C 242.4375 259.253906 243.160156 259.445312 243.890625 259.617188 C 244.621094 259.785156 245.351562 259.933594 246.089844 260.058594 C 246.828125 260.183594 247.570312 260.289062 248.316406 260.371094 C 249.058594 260.453125 249.804688 260.511719 250.554688 260.550781 C 251.300781 260.585938 252.050781 260.601562 252.796875 260.597656 C 253.546875 260.589844 254.292969 260.5625 255.042969 260.511719 C 255.789062 260.460938 256.535156 260.386719 257.277344 260.292969 C 258.019531 260.195312 258.757812 260.078125 259.496094 259.941406 C 260.230469 259.800781 260.960938 259.640625 261.6875 259.460938 C 262.414062 259.277344 263.136719 259.074219 263.847656 258.851562 C 264.5625 258.625 265.269531 258.378906 265.96875 258.113281 C 266.671875 257.847656 267.363281 257.558594 268.042969 257.253906 C 268.726562 256.945312 269.398438 256.617188 270.0625 256.269531 C 270.726562 255.925781 271.378906 255.558594 272.019531 255.171875 C 272.664062 254.785156 273.292969 254.382812 273.910156 253.957031 C 274.527344 253.535156 275.132812 253.09375 275.726562 252.636719 C 276.316406 252.175781 276.894531 251.699219 277.457031 251.207031 C 278.019531 250.714844 278.570312 250.203125 279.101562 249.679688 C 279.636719 249.152344 280.152344 248.613281 280.65625 248.054688 C 281.15625 247.5 281.640625 246.929688 282.109375 246.34375 C 282.574219 245.757812 283.027344 245.160156 283.457031 244.550781 C 283.890625 243.9375 284.304688 243.3125 284.699219 242.679688 C 285.09375 242.042969 285.46875 241.394531 285.828125 240.734375 C 286.183594 240.078125 286.519531 239.410156 286.835938 238.730469 C 287.15625 238.054688 287.453125 237.367188 287.730469 236.671875 C 288.003906 235.972656 288.261719 235.269531 288.496094 234.558594 C 288.730469 233.847656 288.945312 233.132812 289.136719 232.40625 C 289.328125 231.683594 289.5 230.957031 289.648438 230.222656 C 289.800781 229.488281 289.925781 228.75 290.03125 228.007812 C 290.136719 227.269531 290.222656 226.523438 290.285156 225.777344 C 290.34375 225.03125 290.386719 224.285156 290.402344 223.535156 C 290.417969 222.785156 290.414062 222.039062 290.386719 221.289062 C 290.363281 220.542969 290.3125 219.792969 290.242188 219.050781 C 290.171875 218.304688 290.078125 217.5625 289.960938 216.820312 C 289.847656 216.082031 289.710938 215.34375 289.550781 214.613281 C 289.394531 213.882812 289.210938 213.15625 289.011719 212.433594 C 288.808594 211.714844 288.585938 211 288.34375 210.289062 C 288.097656 209.582031 287.835938 208.882812 287.546875 208.191406 L 259.535156 226.605469 L 284.234375 201.902344 L 301.066406 185.074219 C 301.824219 185.5 302.601562 185.890625 303.394531 186.246094 C 304.191406 186.601562 304.996094 186.921875 305.820312 187.207031 C 306.644531 187.492188 307.476562 187.738281 308.324219 187.945312 C 309.167969 188.15625 310.019531 188.328125 310.878906 188.460938 C 311.738281 188.59375 312.605469 188.6875 313.472656 188.742188 C 314.34375 188.796875 315.210938 188.8125 316.082031 188.789062 C 316.953125 188.769531 317.820312 188.707031 318.683594 188.605469 C 319.546875 188.503906 320.40625 188.367188 321.257812 188.191406 C 322.109375 188.011719 322.953125 187.796875 323.785156 187.546875 C 324.617188 187.292969 325.4375 187.003906 326.246094 186.675781 C 327.054688 186.351562 327.84375 185.988281 328.617188 185.59375 C 329.394531 185.195312 330.148438 184.765625 330.882812 184.300781 C 331.621094 183.835938 332.332031 183.339844 333.023438 182.808594 C 333.71875 182.28125 334.382812 181.722656 335.023438 181.136719 C 335.667969 180.546875 336.28125 179.929688 336.867188 179.289062 C 337.453125 178.644531 338.007812 177.976562 338.535156 177.28125 C 339.0625 176.589844 339.558594 175.875 340.019531 175.136719 C 340.480469 174.398438 340.910156 173.644531 341.304688 172.867188 C 341.699219 172.09375 342.058594 171.300781 342.382812 170.492188 C 342.707031 169.683594 342.992188 168.863281 343.242188 168.03125 C 343.492188 167.195312 343.707031 166.351562 343.878906 165.5 C 344.054688 164.648438 344.191406 163.789062 344.289062 162.925781 C 344.386719 162.058594 344.445312 161.191406 344.464844 160.320312 C 344.484375 159.453125 344.464844 158.582031 344.40625 157.714844 C 344.351562 156.84375 344.253906 155.980469 344.117188 155.121094 C 343.984375 154.261719 343.808594 153.410156 343.597656 152.566406 C 343.386719 151.71875 343.136719 150.886719 342.851562 150.066406 C 342.566406 149.242188 342.242188 148.4375 341.882812 147.644531 C 341.523438 146.851562 341.132812 146.074219 340.703125 145.316406 C 340.277344 144.558594 339.816406 143.820312 339.320312 143.105469 C 338.828125 142.386719 338.300781 141.695312 337.746094 141.027344 C 337.1875 140.355469 336.605469 139.714844 335.988281 139.097656 Z M 335.980469 139.132812 " fill-opacity="1" fill-rule="nonzero"/><path fill="#000000" d="M 181.226562 269.589844 L 195.808594 291.773438 L 175.988281 271.953125 L 159.160156 255.121094 C 159.566406 254.496094 159.957031 253.855469 160.332031 253.207031 C 160.703125 252.554688 161.054688 251.894531 161.386719 251.222656 C 161.71875 250.550781 162.03125 249.871094 162.324219 249.183594 C 162.617188 248.492188 162.886719 247.792969 163.140625 247.089844 C 163.390625 246.382812 163.621094 245.671875 163.828125 244.953125 C 164.039062 244.230469 164.222656 243.507812 164.390625 242.777344 C 164.554688 242.046875 164.699219 241.3125 164.824219 240.574219 C 164.945312 239.832031 165.046875 239.089844 165.125 238.347656 C 165.203125 237.601562 165.257812 236.855469 165.292969 236.105469 C 165.328125 235.359375 165.339844 234.609375 165.328125 233.863281 C 165.320312 233.113281 165.289062 232.363281 165.234375 231.617188 C 165.179688 230.871094 165.101562 230.125 165.003906 229.382812 C 164.90625 228.640625 164.785156 227.902344 164.644531 227.167969 C 164.5 226.429688 164.335938 225.699219 164.152344 224.972656 C 163.964844 224.25 163.757812 223.527344 163.53125 222.816406 C 163.304688 222.101562 163.054688 221.394531 162.785156 220.699219 C 162.515625 220 162.222656 219.308594 161.914062 218.628906 C 161.601562 217.945312 161.273438 217.273438 160.921875 216.613281 C 160.570312 215.949219 160.203125 215.296875 159.8125 214.660156 C 159.421875 214.019531 159.015625 213.390625 158.589844 212.773438 C 158.164062 212.160156 157.71875 211.554688 157.257812 210.964844 C 156.796875 210.375 156.316406 209.800781 155.820312 209.238281 C 155.324219 208.679688 154.8125 208.132812 154.285156 207.601562 C 153.757812 207.070312 153.210938 206.554688 152.652344 206.054688 C 152.09375 205.558594 151.523438 205.074219 150.933594 204.609375 C 150.347656 204.144531 149.746094 203.699219 149.132812 203.269531 C 148.519531 202.839844 147.894531 202.429688 147.253906 202.039062 C 146.617188 201.644531 145.96875 201.273438 145.308594 200.917969 C 144.648438 200.5625 143.976562 200.230469 143.296875 199.917969 C 142.617188 199.601562 141.929688 199.308594 141.230469 199.035156 C 140.535156 198.761719 139.828125 198.507812 139.117188 198.277344 C 138.40625 198.046875 137.6875 197.835938 136.960938 197.644531 C 136.238281 197.457031 135.507812 197.289062 134.773438 197.144531 C 134.039062 196.996094 133.300781 196.875 132.558594 196.769531 C 131.816406 196.667969 131.070312 196.589844 130.324219 196.53125 C 129.578125 196.472656 128.828125 196.4375 128.082031 196.421875 C 127.332031 196.410156 126.582031 196.417969 125.835938 196.449219 C 125.085938 196.476562 124.339844 196.53125 123.59375 196.605469 C 122.847656 196.679688 122.105469 196.777344 121.367188 196.894531 C 120.628906 197.015625 119.890625 197.15625 119.160156 197.316406 C 118.429688 197.480469 117.703125 197.664062 116.984375 197.867188 C 116.261719 198.074219 115.550781 198.300781 114.84375 198.546875 C 114.136719 198.792969 113.4375 199.0625 112.746094 199.351562 C 112.054688 199.640625 111.371094 199.949219 110.699219 200.277344 C 110.027344 200.605469 109.363281 200.957031 108.710938 201.324219 C 108.058594 201.691406 107.417969 202.078125 106.789062 202.484375 C 106.160156 202.890625 105.542969 203.316406 104.941406 203.757812 C 104.335938 204.203125 103.746094 204.664062 103.167969 205.140625 C 102.589844 205.617188 102.027344 206.113281 101.480469 206.625 C 100.933594 207.136719 100.402344 207.660156 99.886719 208.203125 C 99.371094 208.746094 98.871094 209.304688 98.386719 209.875 C 97.902344 210.449219 97.4375 211.035156 96.988281 211.632812 C 96.539062 212.234375 96.109375 212.847656 95.695312 213.472656 C 95.285156 214.097656 94.890625 214.734375 94.515625 215.382812 C 94.140625 216.03125 93.785156 216.691406 93.449219 217.359375 C 93.113281 218.027344 92.796875 218.707031 92.503906 219.394531 C 92.207031 220.085938 91.933594 220.78125 91.679688 221.484375 C 91.425781 222.191406 91.191406 222.902344 90.976562 223.621094 C 90.765625 224.339844 90.574219 225.0625 90.40625 225.792969 C 90.238281 226.519531 90.089844 227.253906 89.964844 227.992188 C 89.835938 228.730469 89.734375 229.472656 89.652344 230.21875 C 89.570312 230.960938 89.511719 231.707031 89.472656 232.457031 C 89.433594 233.203125 89.417969 233.953125 89.425781 234.703125 C 89.433594 235.453125 89.460938 236.199219 89.511719 236.945312 C 89.5625 237.695312 89.636719 238.4375 89.730469 239.183594 C 89.824219 239.925781 89.941406 240.664062 90.082031 241.402344 C 90.21875 242.136719 90.378906 242.867188 90.5625 243.59375 C 90.742188 244.320312 90.945312 245.042969 91.171875 245.757812 C 91.398438 246.472656 91.640625 247.179688 91.910156 247.878906 C 92.175781 248.578125 92.460938 249.269531 92.769531 249.953125 C 93.078125 250.636719 93.40625 251.308594 93.753906 251.972656 C 94.097656 252.636719 94.464844 253.289062 94.851562 253.929688 C 95.238281 254.574219 95.644531 255.203125 96.066406 255.820312 C 96.488281 256.4375 96.929688 257.042969 97.390625 257.636719 C 97.847656 258.226562 98.324219 258.804688 98.816406 259.367188 C 99.3125 259.933594 99.820312 260.480469 100.347656 261.015625 C 100.871094 261.546875 101.414062 262.066406 101.96875 262.566406 C 102.527344 263.066406 103.097656 263.550781 103.683594 264.019531 C 104.269531 264.488281 104.867188 264.9375 105.476562 265.371094 C 106.089844 265.800781 106.714844 266.214844 107.351562 266.609375 C 107.984375 267.007812 108.632812 267.382812 109.292969 267.738281 C 109.949219 268.097656 110.621094 268.433594 111.296875 268.75 C 111.976562 269.066406 112.664062 269.363281 113.359375 269.640625 C 114.054688 269.917969 114.757812 270.175781 115.46875 270.410156 C 116.179688 270.644531 116.898438 270.859375 117.621094 271.050781 C 118.347656 271.242188 119.074219 271.414062 119.808594 271.5625 C 120.542969 271.710938 121.28125 271.839844 122.023438 271.945312 C 122.765625 272.050781 123.507812 272.136719 124.253906 272.195312 C 125 272.257812 125.75 272.296875 126.496094 272.316406 C 127.246094 272.332031 127.996094 272.328125 128.742188 272.300781 C 129.492188 272.273438 130.238281 272.226562 130.984375 272.152344 C 131.730469 272.082031 132.472656 271.988281 133.214844 271.875 C 133.953125 271.757812 134.691406 271.621094 135.421875 271.464844 C 136.152344 271.304688 136.878906 271.125 137.601562 270.921875 C 138.324219 270.722656 139.039062 270.496094 139.746094 270.253906 C 140.453125 270.007812 141.15625 269.746094 141.847656 269.460938 L 123.421875 241.445312 L 148.132812 266.144531 L 164.953125 282.976562 C 164.398438 283.953125 163.90625 284.960938 163.46875 285.996094 C 163.03125 287.03125 162.652344 288.085938 162.339844 289.167969 C 162.023438 290.246094 161.773438 291.339844 161.582031 292.445312 C 161.394531 293.554688 161.269531 294.667969 161.210938 295.789062 C 161.148438 296.914062 161.15625 298.035156 161.226562 299.15625 C 161.296875 300.277344 161.429688 301.390625 161.628906 302.496094 C 161.828125 303.605469 162.089844 304.695312 162.414062 305.769531 C 162.738281 306.847656 163.125 307.898438 163.570312 308.929688 C 164.015625 309.960938 164.519531 310.964844 165.082031 311.9375 C 165.644531 312.910156 166.261719 313.847656 166.933594 314.75 C 167.605469 315.648438 168.324219 316.511719 169.09375 317.328125 C 169.867188 318.144531 170.679688 318.917969 171.539062 319.640625 C 172.398438 320.367188 173.296875 321.039062 174.234375 321.65625 C 175.171875 322.277344 176.140625 322.84375 177.144531 323.351562 C 178.144531 323.859375 179.175781 324.308594 180.230469 324.695312 C 181.28125 325.085938 182.355469 325.414062 183.449219 325.675781 C 184.539062 325.941406 185.644531 326.144531 186.757812 326.28125 C 187.875 326.417969 188.992188 326.492188 190.117188 326.5 C 191.242188 326.507812 192.363281 326.449219 193.480469 326.328125 C 194.59375 326.207031 195.703125 326.023438 196.796875 325.773438 C 197.894531 325.523438 198.972656 325.210938 200.03125 324.835938 C 201.089844 324.464844 202.125 324.03125 203.132812 323.535156 C 204.144531 323.042969 205.121094 322.492188 206.066406 321.886719 C 207.011719 321.277344 207.921875 320.621094 208.792969 319.90625 C 209.660156 319.195312 210.488281 318.4375 211.269531 317.628906 C 212.050781 316.824219 212.78125 315.972656 213.464844 315.082031 C 214.148438 314.191406 214.78125 313.261719 215.355469 312.296875 C 215.933594 311.332031 216.453125 310.335938 216.914062 309.3125 C 217.375 308.289062 217.773438 307.238281 218.117188 306.167969 C 218.457031 305.097656 218.734375 304.011719 218.949219 302.90625 C 219.160156 301.804688 219.3125 300.691406 219.398438 299.574219 C 219.484375 298.453125 219.503906 297.332031 219.460938 296.207031 C 219.417969 295.085938 219.308594 293.96875 219.136719 292.859375 C 218.964844 291.746094 218.726562 290.652344 218.425781 289.566406 C 218.128906 288.484375 217.765625 287.421875 217.34375 286.382812 C 216.921875 285.339844 216.441406 284.328125 215.902344 283.339844 C 215.363281 282.355469 214.765625 281.402344 214.117188 280.488281 C 213.46875 279.570312 212.769531 278.695312 212.015625 277.859375 C 211.265625 277.023438 210.46875 276.230469 209.625 275.488281 C 208.785156 274.742188 207.902344 274.050781 206.980469 273.410156 C 206.058594 272.765625 205.101562 272.179688 204.109375 271.648438 C 203.121094 271.117188 202.101562 270.644531 201.058594 270.234375 C 200.011719 269.820312 198.949219 269.464844 197.863281 269.175781 C 196.777344 268.886719 195.679688 268.660156 194.566406 268.496094 C 193.453125 268.332031 192.335938 268.234375 191.214844 268.199219 C 190.089844 268.164062 188.96875 268.195312 187.851562 268.289062 C 186.730469 268.386719 185.621094 268.546875 184.519531 268.769531 C 183.417969 268.992188 182.332031 269.28125 181.265625 269.628906 Z M 181.226562 269.589844 " fill-opacity="1" fill-rule="nonzero"/><path fill="#000000" d="M 64.558594 184.015625 L 84.382812 164.195312 L 101.210938 147.363281 C 101.839844 147.773438 102.476562 148.164062 103.128906 148.535156 C 103.777344 148.90625 104.4375 149.257812 105.109375 149.59375 C 105.78125 149.925781 106.460938 150.238281 107.148438 150.527344 C 107.839844 150.820312 108.535156 151.09375 109.242188 151.34375 C 109.949219 151.59375 110.660156 151.824219 111.378906 152.03125 C 112.097656 152.242188 112.824219 152.429688 113.554688 152.59375 C 114.285156 152.761719 115.019531 152.90625 115.757812 153.027344 C 116.496094 153.148438 117.238281 153.25 117.980469 153.328125 C 118.726562 153.40625 119.472656 153.460938 120.222656 153.496094 C 120.96875 153.53125 121.71875 153.542969 122.464844 153.53125 C 123.214844 153.523438 123.960938 153.492188 124.710938 153.4375 C 125.457031 153.382812 126.199219 153.304688 126.945312 153.207031 C 127.6875 153.109375 128.425781 152.988281 129.160156 152.847656 C 129.894531 152.703125 130.625 152.539062 131.351562 152.355469 C 132.078125 152.167969 132.796875 151.960938 133.507812 151.734375 C 134.222656 151.507812 134.929688 151.257812 135.625 150.988281 C 136.324219 150.71875 137.015625 150.429688 137.695312 150.117188 C 138.378906 149.804688 139.050781 149.476562 139.710938 149.125 C 140.371094 148.773438 141.023438 148.40625 141.664062 148.015625 C 142.304688 147.628906 142.929688 147.21875 143.546875 146.792969 C 144.164062 146.367188 144.765625 145.925781 145.355469 145.460938 C 145.945312 145 146.519531 144.523438 147.082031 144.027344 C 147.640625 143.53125 148.1875 143.019531 148.71875 142.488281 C 149.25 141.960938 149.765625 141.417969 150.261719 140.859375 C 150.761719 140.300781 151.242188 139.726562 151.707031 139.140625 C 152.171875 138.554688 152.621094 137.953125 153.046875 137.339844 C 153.476562 136.726562 153.886719 136.101562 154.28125 135.460938 C 154.671875 134.824219 155.046875 134.175781 155.398438 133.515625 C 155.753906 132.855469 156.085938 132.1875 156.402344 131.507812 C 156.714844 130.824219 157.007812 130.136719 157.28125 129.441406 C 157.554688 128.742188 157.808594 128.039062 158.039062 127.328125 C 158.269531 126.613281 158.480469 125.894531 158.671875 125.171875 C 158.859375 124.445312 159.027344 123.71875 159.171875 122.984375 C 159.320312 122.25 159.441406 121.511719 159.546875 120.769531 C 159.648438 120.027344 159.726562 119.28125 159.785156 118.535156 C 159.84375 117.789062 159.878906 117.042969 159.894531 116.292969 C 159.90625 115.542969 159.898438 114.796875 159.867188 114.046875 C 159.839844 113.300781 159.785156 112.554688 159.710938 111.808594 C 159.636719 111.0625 159.539062 110.320312 159.421875 109.582031 C 159.300781 108.84375 159.160156 108.105469 159 107.375 C 158.835938 106.644531 158.652344 105.917969 158.449219 105.199219 C 158.242188 104.480469 158.015625 103.765625 157.769531 103.058594 C 157.523438 102.351562 157.253906 101.652344 156.964844 100.960938 C 156.675781 100.269531 156.367188 99.589844 156.039062 98.917969 C 155.710938 98.242188 155.363281 97.582031 154.992188 96.929688 C 154.625 96.277344 154.238281 95.636719 153.832031 95.007812 C 153.425781 94.378906 153 93.761719 152.558594 93.160156 C 152.117188 92.554688 151.65625 91.964844 151.179688 91.386719 C 150.699219 90.8125 150.207031 90.25 149.695312 89.703125 C 149.183594 89.152344 148.65625 88.621094 148.113281 88.105469 C 147.574219 87.589844 147.015625 87.089844 146.445312 86.605469 C 145.871094 86.125 145.285156 85.65625 144.6875 85.207031 C 144.085938 84.761719 143.472656 84.328125 142.847656 83.917969 C 142.222656 83.503906 141.585938 83.113281 140.9375 82.738281 C 140.289062 82.363281 139.632812 82.007812 138.960938 81.671875 C 138.292969 81.335938 137.613281 81.019531 136.925781 80.726562 C 136.238281 80.429688 135.542969 80.15625 134.835938 79.898438 C 134.132812 79.644531 133.421875 79.414062 132.703125 79.199219 C 131.984375 78.988281 131.261719 78.796875 130.53125 78.628906 C 129.804688 78.460938 129.070312 78.3125 128.332031 78.1875 C 127.59375 78.058594 126.851562 77.957031 126.109375 77.875 C 125.363281 77.792969 124.617188 77.730469 123.871094 77.695312 C 123.121094 77.65625 122.375 77.640625 121.625 77.648438 C 120.875 77.652344 120.128906 77.683594 119.378906 77.734375 C 118.632812 77.785156 117.886719 77.855469 117.144531 77.953125 C 116.402344 78.046875 115.664062 78.164062 114.925781 78.300781 C 114.191406 78.441406 113.460938 78.601562 112.734375 78.785156 C 112.007812 78.964844 111.289062 79.167969 110.574219 79.394531 C 109.859375 79.617188 109.152344 79.863281 108.453125 80.128906 C 107.753906 80.394531 107.0625 80.683594 106.378906 80.992188 C 105.695312 81.296875 105.023438 81.625 104.359375 81.972656 C 103.695312 82.320312 103.042969 82.6875 102.402344 83.074219 C 101.757812 83.457031 101.128906 83.863281 100.511719 84.285156 C 99.894531 84.710938 99.289062 85.148438 98.699219 85.609375 C 98.105469 86.066406 97.527344 86.542969 96.964844 87.039062 C 96.402344 87.53125 95.851562 88.039062 95.320312 88.566406 C 94.785156 89.089844 94.269531 89.632812 93.765625 90.1875 C 93.265625 90.746094 92.78125 91.316406 92.3125 91.898438 C 91.847656 92.484375 91.398438 93.082031 90.964844 93.695312 C 90.53125 94.304688 90.117188 94.929688 89.722656 95.566406 C 89.328125 96.203125 88.953125 96.847656 88.597656 97.507812 C 88.238281 98.164062 87.902344 98.835938 87.585938 99.511719 C 87.265625 100.191406 86.96875 100.878906 86.695312 101.574219 C 86.417969 102.269531 86.160156 102.972656 85.925781 103.683594 C 85.691406 104.394531 85.476562 105.113281 85.285156 105.835938 C 85.09375 106.558594 84.921875 107.289062 84.773438 108.023438 C 84.621094 108.753906 84.496094 109.492188 84.390625 110.234375 C 84.285156 110.976562 84.199219 111.71875 84.136719 112.464844 C 84.078125 113.210938 84.039062 113.960938 84.019531 114.707031 C 84.003906 115.457031 84.007812 116.207031 84.035156 116.953125 C 84.0625 117.703125 84.109375 118.449219 84.179688 119.195312 C 84.253906 119.941406 84.34375 120.683594 84.460938 121.421875 C 84.574219 122.164062 84.710938 122.898438 84.871094 123.628906 C 85.03125 124.363281 85.210938 125.089844 85.410156 125.808594 C 85.613281 126.53125 85.835938 127.246094 86.078125 127.953125 C 86.324219 128.660156 86.589844 129.359375 86.875 130.054688 L 114.890625 111.636719 L 73.355469 153.171875 C 72.378906 152.617188 71.371094 152.121094 70.339844 151.683594 C 69.304688 151.246094 68.246094 150.871094 67.167969 150.558594 C 66.089844 150.242188 64.996094 149.992188 63.890625 149.800781 C 62.78125 149.613281 61.667969 149.492188 60.546875 149.429688 C 59.421875 149.371094 58.300781 149.375 57.179688 149.445312 C 56.058594 149.515625 54.945312 149.652344 53.839844 149.851562 C 52.734375 150.050781 51.644531 150.3125 50.570312 150.636719 C 49.492188 150.960938 48.441406 151.347656 47.410156 151.792969 C 46.378906 152.242188 45.378906 152.746094 44.40625 153.308594 C 43.433594 153.871094 42.496094 154.488281 41.59375 155.15625 C 40.695312 155.828125 39.835938 156.550781 39.015625 157.320312 C 38.199219 158.089844 37.429688 158.90625 36.707031 159.765625 C 35.980469 160.625 35.308594 161.519531 34.691406 162.457031 C 34.070312 163.394531 33.507812 164.363281 33 165.367188 C 32.492188 166.371094 32.042969 167.398438 31.65625 168.453125 C 31.265625 169.503906 30.9375 170.578125 30.675781 171.667969 C 30.410156 172.761719 30.210938 173.863281 30.070312 174.980469 C 29.933594 176.09375 29.863281 177.214844 29.855469 178.335938 C 29.847656 179.460938 29.902344 180.582031 30.027344 181.699219 C 30.148438 182.8125 30.332031 183.921875 30.582031 185.015625 C 30.832031 186.109375 31.144531 187.1875 31.519531 188.246094 C 31.894531 189.304688 32.328125 190.339844 32.820312 191.351562 C 33.316406 192.359375 33.863281 193.335938 34.472656 194.28125 C 35.078125 195.226562 35.738281 196.132812 36.449219 197.003906 C 37.160156 197.871094 37.921875 198.699219 38.726562 199.480469 C 39.535156 200.261719 40.382812 200.992188 41.277344 201.675781 C 42.167969 202.359375 43.09375 202.988281 44.058594 203.566406 C 45.023438 204.140625 46.019531 204.660156 47.042969 205.121094 C 48.066406 205.582031 49.117188 205.980469 50.1875 206.320312 C 51.257812 206.660156 52.34375 206.9375 53.445312 207.152344 C 54.550781 207.367188 55.660156 207.515625 56.78125 207.601562 C 57.902344 207.6875 59.023438 207.707031 60.144531 207.664062 C 61.265625 207.621094 62.382812 207.511719 63.492188 207.335938 C 64.601562 207.164062 65.699219 206.929688 66.78125 206.628906 C 67.863281 206.328125 68.925781 205.96875 69.96875 205.542969 C 71.007812 205.121094 72.019531 204.640625 73.007812 204.101562 C 73.992188 203.5625 74.941406 202.964844 75.859375 202.316406 C 76.777344 201.667969 77.652344 200.964844 78.488281 200.214844 C 79.324219 199.464844 80.113281 198.667969 80.855469 197.824219 C 81.597656 196.984375 82.289062 196.101562 82.933594 195.179688 C 83.574219 194.257812 84.160156 193.300781 84.691406 192.3125 C 85.222656 191.320312 85.695312 190.304688 86.105469 189.257812 C 86.519531 188.214844 86.871094 187.148438 87.160156 186.0625 C 87.453125 184.980469 87.679688 183.878906 87.839844 182.769531 C 88.003906 181.65625 88.101562 180.539062 88.136719 179.417969 C 88.171875 178.292969 88.140625 177.171875 88.042969 176.054688 C 87.949219 174.933594 87.789062 173.824219 87.5625 172.722656 C 87.339844 171.625 87.054688 170.539062 86.703125 169.472656 Z M 64.558594 184.015625 " fill-opacity="1" fill-rule="nonzero"/><g fill="#000000" fill-opacity="1"><g transform="translate(149.707568, 353.699977)"><g><path d="M 9.03125 -6.71875 L 6.0625 0.046875 L 5.015625 0.046875 L 0.859375 -8.984375 L -0.078125 -9.3125 L -0.015625 -10.3125 L 5.046875 -10.3125 L 5.09375 -9.3125 L 4.234375 -8.984375 L 6.96875 -2.703125 L 5.8125 -2.703125 L 8.109375 -8.375 Z M 11.640625 0.046875 L 7.40625 -8.984375 L 6.546875 -9.3125 L 6.59375 -10.3125 L 11.78125 -10.3125 L 11.828125 -9.3125 L 10.6875 -8.984375 L 13.46875 -2.703125 L 12.53125 -2.703125 L 14.953125 -8.984375 L 13.78125 -9.3125 L 13.828125 -10.3125 L 17.6875 -10.3125 L 17.734375 -9.3125 L 16.8125 -8.984375 L 12.6875 0.046875 Z M 11.640625 0.046875 "/></g></g><g transform="translate(167.408739, 353.699977)"><g><path d="M 9.5625 0.125 C 9.195312 0.101562 8.726562 0.078125 8.15625 0.046875 C 7.59375 0.015625 7.085938 0 6.640625 0 L 0.578125 0 L 0.53125 -1 L 1.671875 -1.34375 C 1.691406 -1.382812 1.710938 -1.539062 1.734375 -1.8125 C 1.765625 -2.082031 1.785156 -2.421875 1.796875 -2.828125 C 1.804688 -3.242188 1.8125 -3.671875 1.8125 -4.109375 L 1.8125 -6.21875 C 1.8125 -6.675781 1.804688 -7.109375 1.796875 -7.515625 C 1.785156 -7.929688 1.765625 -8.269531 1.734375 -8.53125 C 1.710938 -8.800781 1.691406 -8.953125 1.671875 -8.984375 L 0.53125 -9.3125 L 0.578125 -10.3125 L 5.8125 -10.3125 C 6.113281 -10.3125 6.46875 -10.316406 6.875 -10.328125 C 7.289062 -10.335938 7.695312 -10.347656 8.09375 -10.359375 C 8.5 -10.378906 8.828125 -10.398438 9.078125 -10.421875 L 9.609375 -7.625 L 8.453125 -7.46875 L 7.75 -9.09375 C 7.5625 -9.125 7.398438 -9.144531 7.265625 -9.15625 C 7.140625 -9.164062 7.007812 -9.171875 6.875 -9.171875 L 5.953125 -9.171875 C 5.734375 -9.171875 5.507812 -9.164062 5.28125 -9.15625 C 5.050781 -9.15625 4.882812 -9.144531 4.78125 -9.125 C 4.769531 -9.007812 4.757812 -8.863281 4.75 -8.6875 C 4.75 -8.507812 4.742188 -8.273438 4.734375 -7.984375 C 4.734375 -7.691406 4.734375 -7.316406 4.734375 -6.859375 L 4.734375 -3.8125 C 4.734375 -3.34375 4.734375 -2.945312 4.734375 -2.625 C 4.742188 -2.300781 4.75 -2.035156 4.75 -1.828125 C 4.757812 -1.628906 4.769531 -1.46875 4.78125 -1.34375 C 5.019531 -1.300781 5.269531 -1.273438 5.53125 -1.265625 C 5.789062 -1.253906 6.140625 -1.25 6.578125 -1.25 L 7.03125 -1.25 C 7.363281 -1.25 7.59375 -1.25 7.71875 -1.25 C 7.851562 -1.25 7.953125 -1.253906 8.015625 -1.265625 C 8.085938 -1.273438 8.175781 -1.289062 8.28125 -1.3125 L 9.28125 -3.125 L 10.40625 -2.921875 Z M 7.15625 -3.453125 L 7 -4.625 C 6.914062 -4.625 6.769531 -4.625 6.5625 -4.625 C 6.363281 -4.632812 6.140625 -4.640625 5.890625 -4.640625 L 5.203125 -4.640625 C 4.972656 -4.640625 4.769531 -4.632812 4.59375 -4.625 C 4.414062 -4.613281 4.304688 -4.601562 4.265625 -4.59375 L 4.265625 -6.015625 C 4.304688 -6.003906 4.414062 -5.988281 4.59375 -5.96875 C 4.769531 -5.945312 4.972656 -5.9375 5.203125 -5.9375 L 5.890625 -5.9375 C 6.140625 -5.9375 6.363281 -5.9375 6.5625 -5.9375 C 6.769531 -5.945312 6.914062 -5.953125 7 -5.953125 L 7.15625 -7.109375 L 8.28125 -7.109375 L 8.28125 -3.453125 Z M 7.15625 -3.453125 "/></g></g><g transform="translate(177.973191, 353.699977)"><g><path d="M 1.6875 -1.34375 C 1.71875 -1.394531 1.742188 -1.691406 1.765625 -2.234375 C 1.796875 -2.773438 1.8125 -3.398438 1.8125 -4.109375 L 1.8125 -6.21875 C 1.8125 -6.914062 1.796875 -7.53125 1.765625 -8.0625 C 1.742188 -8.601562 1.71875 -8.90625 1.6875 -8.96875 L 0.546875 -9.328125 L 0.59375 -10.3125 L 6.125 -10.3125 C 7.40625 -10.3125 8.351562 -10.109375 8.96875 -9.703125 C 9.582031 -9.304688 9.890625 -8.6875 9.890625 -7.84375 C 9.890625 -7.195312 9.59375 -6.660156 9 -6.234375 C 8.40625 -5.804688 7.613281 -5.5625 6.625 -5.5 L 6.921875 -5.65625 C 8.035156 -5.601562 8.894531 -5.347656 9.5 -4.890625 C 10.113281 -4.429688 10.421875 -3.820312 10.421875 -3.0625 C 10.421875 -2.070312 10.015625 -1.3125 9.203125 -0.78125 C 8.390625 -0.257812 7.226562 0 5.71875 0 L 0.59375 0 L 0.546875 -1 Z M 4.734375 -3.109375 C 4.734375 -2.679688 4.738281 -2.3125 4.75 -2 C 4.757812 -1.695312 4.769531 -1.46875 4.78125 -1.3125 C 4.882812 -1.269531 5.019531 -1.234375 5.1875 -1.203125 C 5.363281 -1.171875 5.539062 -1.15625 5.71875 -1.15625 C 6.195312 -1.15625 6.578125 -1.300781 6.859375 -1.59375 C 7.140625 -1.894531 7.28125 -2.285156 7.28125 -2.765625 C 7.28125 -3.410156 7.117188 -3.878906 6.796875 -4.171875 C 6.484375 -4.460938 5.957031 -4.609375 5.21875 -4.609375 C 5.125 -4.609375 5.007812 -4.601562 4.875 -4.59375 C 4.75 -4.59375 4.609375 -4.578125 4.453125 -4.546875 L 4.453125 -5.90625 C 4.628906 -5.894531 4.765625 -5.882812 4.859375 -5.875 C 4.960938 -5.875 5.054688 -5.875 5.140625 -5.875 C 5.703125 -5.875 6.109375 -6.019531 6.359375 -6.3125 C 6.617188 -6.601562 6.75 -7.019531 6.75 -7.5625 C 6.75 -8.050781 6.617188 -8.445312 6.359375 -8.75 C 6.109375 -9.0625 5.679688 -9.21875 5.078125 -9.21875 L 4.765625 -9.21875 C 4.753906 -9.09375 4.742188 -8.84375 4.734375 -8.46875 C 4.734375 -8.101562 4.734375 -7.664062 4.734375 -7.15625 Z M 4.734375 -3.109375 "/></g></g><g transform="translate(189.152878, 353.699977)"><g/></g><g transform="translate(192.668503, 353.699977)"><g><path d="M 0 0 L -0.046875 -1 L 0.875 -1.34375 L 4.4375 -9.671875 L 6.171875 -10.640625 L 10.359375 -1.34375 L 11.28125 -1 L 11.234375 0 L 5.796875 0 L 5.71875 -1 L 6.875 -1.34375 L 6.015625 -3.359375 L 5.8125 -4.015625 L 4.15625 -7.765625 L 4.75 -7.390625 L 3.515625 -4.09375 L 3.359375 -3.5625 L 2.578125 -1.34375 L 3.75 -1 L 3.6875 0 Z M 2.84375 -2.8125 L 2.84375 -4.1875 C 3.09375 -4.175781 3.34375 -4.15625 3.59375 -4.125 C 3.84375 -4.101562 4.191406 -4.09375 4.640625 -4.09375 C 5.078125 -4.09375 5.425781 -4.101562 5.6875 -4.125 C 5.957031 -4.15625 6.210938 -4.175781 6.453125 -4.1875 L 6.453125 -2.828125 C 6.359375 -2.828125 6.171875 -2.832031 5.890625 -2.84375 C 5.609375 -2.851562 5.191406 -2.859375 4.640625 -2.859375 C 4.066406 -2.859375 3.644531 -2.851562 3.375 -2.84375 C 3.113281 -2.832031 2.9375 -2.820312 2.84375 -2.8125 Z M 2.84375 -2.8125 "/></g></g><g transform="translate(203.795455, 353.699977)"><g><path d="M 0.65625 0 L 0.59375 -1 L 1.671875 -1.34375 C 1.703125 -1.382812 1.726562 -1.546875 1.75 -1.828125 C 1.769531 -2.109375 1.785156 -2.445312 1.796875 -2.84375 C 1.804688 -3.25 1.8125 -3.644531 1.8125 -4.03125 L 1.828125 -6.359375 C 1.828125 -6.734375 1.820312 -7.117188 1.8125 -7.515625 C 1.800781 -7.921875 1.785156 -8.269531 1.765625 -8.5625 C 1.742188 -8.863281 1.71875 -9.039062 1.6875 -9.09375 L 0.546875 -9.3125 L 0.59375 -10.3125 L 5.515625 -10.3125 C 7.140625 -10.3125 8.328125 -10.046875 9.078125 -9.515625 C 9.835938 -8.992188 10.21875 -8.242188 10.21875 -7.265625 C 10.21875 -6.617188 10.046875 -6.023438 9.703125 -5.484375 C 9.359375 -4.941406 8.84375 -4.507812 8.15625 -4.1875 C 7.476562 -3.863281 6.617188 -3.703125 5.578125 -3.703125 C 5.421875 -3.703125 5.25 -3.710938 5.0625 -3.734375 C 4.875 -3.765625 4.695312 -3.796875 4.53125 -3.828125 L 4.53125 -5.203125 C 4.59375 -5.171875 4.71875 -5.132812 4.90625 -5.09375 C 5.09375 -5.050781 5.328125 -5.03125 5.609375 -5.03125 C 6.085938 -5.03125 6.453125 -5.203125 6.703125 -5.546875 C 6.953125 -5.898438 7.078125 -6.390625 7.078125 -7.015625 C 7.078125 -7.773438 6.898438 -8.332031 6.546875 -8.6875 C 6.203125 -9.039062 5.6875 -9.21875 5 -9.21875 L 4.78125 -9.21875 C 4.78125 -9.101562 4.773438 -8.941406 4.765625 -8.734375 C 4.765625 -8.535156 4.765625 -8.242188 4.765625 -7.859375 C 4.765625 -7.484375 4.765625 -6.984375 4.765625 -6.359375 L 4.78125 -4.03125 C 4.78125 -3.644531 4.785156 -3.25 4.796875 -2.84375 C 4.816406 -2.445312 4.835938 -2.109375 4.859375 -1.828125 C 4.878906 -1.546875 4.894531 -1.375 4.90625 -1.3125 L 6.328125 -1.03125 L 6.28125 0 Z M 0.65625 0 "/></g></g><g transform="translate(214.535689, 353.699977)"><g><path d="M 0.65625 0 L 0.59375 -1 L 1.671875 -1.34375 C 1.703125 -1.382812 1.726562 -1.546875 1.75 -1.828125 C 1.769531 -2.109375 1.785156 -2.445312 1.796875 -2.84375 C 1.804688 -3.25 1.8125 -3.644531 1.8125 -4.03125 L 1.828125 -6.359375 C 1.828125 -6.734375 1.820312 -7.117188 1.8125 -7.515625 C 1.800781 -7.921875 1.785156 -8.269531 1.765625 -8.5625 C 1.742188 -8.863281 1.71875 -9.039062 1.6875 -9.09375 L 0.546875 -9.3125 L 0.59375 -10.3125 L 5.515625 -10.3125 C 7.140625 -10.3125 8.328125 -10.046875 9.078125 -9.515625 C 9.835938 -8.992188 10.21875 -8.242188 10.21875 -7.265625 C 10.21875 -6.617188 10.046875 -6.023438 9.703125 -5.484375 C 9.359375 -4.941406 8.84375 -4.507812 8.15625 -4.1875 C 7.476562 -3.863281 6.617188 -3.703125 5.578125 -3.703125 C 5.421875 -3.703125 5.25 -3.710938 5.0625 -3.734375 C 4.875 -3.765625 4.695312 -3.796875 4.53125 -3.828125 L 4.53125 -5.203125 C 4.59375 -5.171875 4.71875 -5.132812 4.90625 -5.09375 C 5.09375 -5.050781 5.328125 -5.03125 5.609375 -5.03125 C 6.085938 -5.03125 6.453125 -5.203125 6.703125 -5.546875 C 6.953125 -5.898438 7.078125 -6.390625 7.078125 -7.015625 C 7.078125 -7.773438 6.898438 -8.332031 6.546875 -8.6875 C 6.203125 -9.039062 5.6875 -9.21875 5 -9.21875 L 4.78125 -9.21875 C 4.78125 -9.101562 4.773438 -8.941406 4.765625 -8.734375 C 4.765625 -8.535156 4.765625 -8.242188 4.765625 -7.859375 C 4.765625 -7.484375 4.765625 -6.984375 4.765625 -6.359375 L 4.78125 -4.03125 C 4.78125 -3.644531 4.785156 -3.25 4.796875 -2.84375 C 4.816406 -2.445312 4.835938 -2.109375 4.859375 -1.828125 C 4.878906 -1.546875 4.894531 -1.375 4.90625 -1.3125 L 6.328125 -1.03125 L 6.28125 0 Z M 0.65625 0 "/></g></g></g></svg>