<svg xmlns="http://www.w3.org/2000/svg" xmlns:xlink="http://www.w3.org/1999/xlink" width="500" zoomAndPan="magnify" viewBox="0 0 375 374.999991" height="500" preserveAspectRatio="xMidYMid meet" version="1.0"><path fill="#7c3aed" d="M 194.019531 72.449219 L 177.328125 47.058594 L 200.015625 69.746094 L 219.277344 89.011719 C 218.808594 89.726562 218.363281 90.460938 217.9375 91.203125 C 217.511719 91.949219 217.109375 92.703125 216.726562 93.472656 C 216.347656 94.242188 215.992188 95.019531 215.65625 95.808594 C 215.320312 96.597656 215.011719 97.398438 214.722656 98.203125 C 214.4375 99.011719 214.171875 99.828125 213.933594 100.652344 C 213.695312 101.472656 213.480469 102.304688 213.289062 103.140625 C 213.101562 103.976562 212.933594 104.816406 212.796875 105.664062 C 212.65625 106.507812 212.539062 107.355469 212.449219 108.210938 C 212.359375 109.0625 212.296875 109.917969 212.257812 110.773438 C 212.21875 111.628906 212.203125 112.488281 212.214844 113.34375 C 212.226562 114.199219 212.265625 115.058594 212.324219 115.914062 C 212.386719 116.765625 212.476562 117.621094 212.589844 118.46875 C 212.699219 119.320312 212.839844 120.164062 213 121.007812 C 213.164062 121.847656 213.351562 122.683594 213.5625 123.515625 C 213.777344 124.347656 214.011719 125.167969 214.273438 125.984375 C 214.535156 126.804688 214.820312 127.609375 215.128906 128.410156 C 215.4375 129.210938 215.769531 130 216.125 130.78125 C 216.480469 131.558594 216.859375 132.328125 217.261719 133.085938 C 217.660156 133.84375 218.085938 134.589844 218.53125 135.324219 C 218.976562 136.054688 219.441406 136.773438 219.929688 137.480469 C 220.417969 138.183594 220.925781 138.875 221.453125 139.546875 C 221.984375 140.222656 222.53125 140.882812 223.097656 141.523438 C 223.667969 142.167969 224.253906 142.792969 224.855469 143.398438 C 225.460938 144.007812 226.082031 144.597656 226.722656 145.167969 C 227.363281 145.738281 228.019531 146.289062 228.691406 146.824219 C 229.363281 147.355469 230.050781 147.867188 230.753906 148.359375 C 231.457031 148.847656 232.171875 149.320312 232.902344 149.769531 C 233.632812 150.21875 234.375 150.644531 235.132812 151.050781 C 235.886719 151.453125 236.652344 151.835938 237.433594 152.195312 C 238.210938 152.554688 239 152.890625 239.796875 153.203125 C 240.59375 153.519531 241.402344 153.808594 242.214844 154.070312 C 243.03125 154.335938 243.855469 154.578125 244.683594 154.792969 C 245.511719 155.011719 246.347656 155.203125 247.1875 155.371094 C 248.03125 155.535156 248.875 155.679688 249.722656 155.796875 C 250.574219 155.914062 251.425781 156.003906 252.28125 156.070312 C 253.136719 156.136719 253.992188 156.179688 254.847656 156.195312 C 255.707031 156.210938 256.5625 156.199219 257.417969 156.164062 C 258.277344 156.132812 259.128906 156.070312 259.984375 155.984375 C 260.835938 155.898438 261.6875 155.789062 262.53125 155.652344 C 263.378906 155.519531 264.222656 155.355469 265.058594 155.171875 C 265.894531 154.984375 266.726562 154.777344 267.550781 154.539062 C 268.375 154.304688 269.191406 154.046875 270 153.765625 C 270.808594 153.480469 271.609375 153.175781 272.402344 152.84375 C 273.191406 152.511719 273.972656 152.160156 274.742188 151.78125 C 275.511719 151.40625 276.269531 151.007812 277.015625 150.585938 C 277.765625 150.164062 278.496094 149.71875 279.21875 149.253906 C 279.9375 148.789062 280.644531 148.304688 281.335938 147.796875 C 282.027344 147.289062 282.703125 146.761719 283.363281 146.214844 C 284.023438 145.667969 284.667969 145.105469 285.292969 144.519531 C 285.917969 143.933594 286.527344 143.332031 287.121094 142.710938 C 287.710938 142.089844 288.28125 141.453125 288.835938 140.796875 C 289.390625 140.140625 289.921875 139.472656 290.4375 138.785156 C 290.949219 138.097656 291.441406 137.398438 291.914062 136.679688 C 292.386719 135.964844 292.835938 135.238281 293.265625 134.496094 C 293.695312 133.753906 294.101562 132.996094 294.484375 132.230469 C 294.871094 131.464844 295.230469 130.6875 295.570312 129.898438 C 295.90625 129.113281 296.222656 128.316406 296.511719 127.507812 C 296.804688 126.703125 297.070312 125.886719 297.316406 125.066406 C 297.558594 124.246094 297.777344 123.414062 297.96875 122.582031 C 298.164062 121.746094 298.332031 120.90625 298.476562 120.058594 C 298.621094 119.214844 298.738281 118.367188 298.832031 117.515625 C 298.925781 116.660156 298.996094 115.808594 299.039062 114.953125 C 299.082031 114.09375 299.097656 113.238281 299.09375 112.382812 C 299.085938 111.523438 299.050781 110.667969 298.992188 109.8125 C 298.933594 108.957031 298.851562 108.105469 298.742188 107.253906 C 298.632812 106.402344 298.5 105.558594 298.34375 104.714844 C 298.183594 103.871094 298 103.035156 297.792969 102.203125 C 297.582031 101.371094 297.351562 100.546875 297.09375 99.730469 C 296.835938 98.910156 296.554688 98.101562 296.25 97.300781 C 295.945312 96.5 295.617188 95.707031 295.265625 94.925781 C 294.914062 94.144531 294.539062 93.375 294.140625 92.613281 C 293.742188 91.855469 293.324219 91.109375 292.878906 90.375 C 292.4375 89.640625 291.976562 88.917969 291.492188 88.210938 C 291.007812 87.503906 290.5 86.8125 289.976562 86.132812 C 289.449219 85.457031 288.90625 84.796875 288.339844 84.148438 C 287.777344 83.503906 287.195312 82.875 286.589844 82.265625 C 285.988281 81.65625 285.371094 81.0625 284.734375 80.488281 C 284.097656 79.914062 283.445312 79.359375 282.773438 78.824219 C 282.105469 78.289062 281.417969 77.777344 280.71875 77.28125 C 280.019531 76.785156 279.304688 76.3125 278.578125 75.859375 C 277.847656 75.40625 277.105469 74.976562 276.355469 74.570312 C 275.601562 74.160156 274.835938 73.773438 274.058594 73.410156 C 273.28125 73.046875 272.496094 72.707031 271.699219 72.390625 C 270.902344 72.074219 270.097656 71.78125 269.28125 71.511719 C 268.46875 71.246094 267.648438 71 266.820312 70.777344 C 265.988281 70.558594 265.15625 70.363281 264.316406 70.191406 C 263.476562 70.019531 262.632812 69.875 261.78125 69.753906 C 260.933594 69.632812 260.082031 69.539062 259.226562 69.46875 C 258.375 69.398438 257.519531 69.351562 256.660156 69.332031 C 255.804688 69.3125 254.945312 69.316406 254.089844 69.347656 C 253.234375 69.378906 252.378906 69.433594 251.523438 69.515625 C 250.671875 69.597656 249.820312 69.703125 248.972656 69.835938 C 248.125 69.96875 247.285156 70.125 246.445312 70.304688 C 245.609375 70.488281 244.777344 70.695312 243.953125 70.925781 C 243.125 71.15625 242.308594 71.410156 241.496094 71.691406 C 240.6875 71.96875 239.886719 72.273438 239.09375 72.601562 L 260.179688 104.664062 L 231.898438 76.390625 L 212.632812 57.128906 C 212.949219 56.570312 213.25 56.003906 213.535156 55.425781 C 213.816406 54.851562 214.082031 54.265625 214.332031 53.675781 C 214.582031 53.082031 214.816406 52.484375 215.03125 51.878906 C 215.246094 51.273438 215.441406 50.664062 215.625 50.046875 C 215.804688 49.429688 215.964844 48.808594 216.109375 48.183594 C 216.253906 47.558594 216.378906 46.929688 216.484375 46.296875 C 216.59375 45.664062 216.683594 45.027344 216.753906 44.390625 C 216.824219 43.75 216.875 43.113281 216.910156 42.46875 C 216.945312 41.828125 216.960938 41.1875 216.957031 40.546875 C 216.953125 39.902344 216.933594 39.261719 216.890625 38.621094 C 216.851562 37.980469 216.792969 37.339844 216.714844 36.703125 C 216.640625 36.066406 216.542969 35.429688 216.429688 34.800781 C 216.316406 34.167969 216.183594 33.539062 216.035156 32.914062 C 215.882812 32.289062 215.714844 31.671875 215.53125 31.058594 C 215.34375 30.441406 215.140625 29.832031 214.921875 29.230469 C 214.699219 28.628906 214.460938 28.03125 214.207031 27.441406 C 213.949219 26.851562 213.679688 26.273438 213.390625 25.699219 C 213.101562 25.125 212.792969 24.5625 212.472656 24.003906 C 212.152344 23.449219 211.8125 22.902344 211.460938 22.367188 C 211.109375 21.832031 210.738281 21.304688 210.355469 20.789062 C 209.972656 20.273438 209.574219 19.769531 209.164062 19.277344 C 208.75 18.789062 208.324219 18.308594 207.882812 17.839844 C 207.441406 17.371094 206.988281 16.917969 206.523438 16.476562 C 206.054688 16.035156 205.578125 15.609375 205.085938 15.195312 C 204.59375 14.78125 204.09375 14.382812 203.578125 14 C 203.0625 13.613281 202.539062 13.246094 202.003906 12.890625 C 201.46875 12.535156 200.921875 12.199219 200.367188 11.875 C 199.8125 11.550781 199.246094 11.246094 198.675781 10.957031 C 198.101562 10.664062 197.523438 10.390625 196.933594 10.136719 C 196.34375 9.878906 195.75 9.640625 195.144531 9.417969 C 194.542969 9.195312 193.9375 8.992188 193.320312 8.804688 C 192.707031 8.617188 192.089844 8.449219 191.464844 8.296875 C 190.839844 8.144531 190.210938 8.011719 189.582031 7.898438 C 188.949219 7.78125 188.3125 7.683594 187.675781 7.605469 C 187.039062 7.527344 186.398438 7.46875 185.757812 7.425781 C 185.117188 7.386719 184.476562 7.363281 183.835938 7.359375 C 183.191406 7.355469 182.550781 7.367188 181.910156 7.402344 C 181.269531 7.433594 180.628906 7.484375 179.992188 7.554688 C 179.351562 7.625 178.714844 7.710938 178.082031 7.816406 C 177.449219 7.925781 176.820312 8.050781 176.195312 8.191406 C 175.570312 8.335938 174.945312 8.496094 174.332031 8.671875 C 173.714844 8.851562 173.101562 9.046875 172.496094 9.261719 C 171.890625 9.476562 171.292969 9.707031 170.699219 9.957031 C 170.109375 10.203125 169.523438 10.46875 168.949219 10.753906 C 168.371094 11.035156 167.800781 11.332031 167.242188 11.648438 C 166.683594 11.964844 166.132812 12.292969 165.59375 12.640625 C 165.054688 12.988281 164.523438 13.351562 164.003906 13.726562 C 163.484375 14.105469 162.976562 14.496094 162.480469 14.902344 C 161.980469 15.308594 161.496094 15.730469 161.023438 16.164062 C 160.550781 16.601562 160.09375 17.046875 159.644531 17.511719 C 159.199219 17.972656 158.765625 18.445312 158.347656 18.929688 C 157.929688 19.417969 157.523438 19.914062 157.132812 20.425781 C 156.742188 20.933594 156.367188 21.457031 156.007812 21.988281 C 155.644531 22.519531 155.300781 23.058594 154.972656 23.609375 C 154.644531 24.164062 154.328125 24.722656 154.03125 25.292969 C 153.734375 25.863281 153.457031 26.4375 153.191406 27.023438 C 152.929688 27.609375 152.683594 28.203125 152.453125 28.800781 C 152.222656 29.402344 152.011719 30.007812 151.820312 30.621094 C 151.625 31.234375 151.449219 31.847656 151.289062 32.472656 C 151.128906 33.09375 150.992188 33.71875 150.867188 34.351562 C 150.746094 34.980469 150.640625 35.613281 150.554688 36.25 C 150.46875 36.886719 150.402344 37.523438 150.351562 38.164062 C 150.304688 38.804688 150.273438 39.445312 150.261719 40.089844 C 150.25 40.730469 150.257812 41.371094 150.28125 42.015625 C 150.308594 42.65625 150.351562 43.296875 150.414062 43.933594 C 150.476562 44.574219 150.554688 45.210938 150.65625 45.84375 C 150.753906 46.480469 150.871094 47.109375 151.007812 47.738281 C 151.140625 48.367188 151.292969 48.988281 151.464844 49.609375 C 151.636719 50.226562 151.828125 50.839844 152.035156 51.449219 C 152.238281 52.054688 152.464844 52.65625 152.707031 53.253906 C 152.945312 53.847656 153.207031 54.433594 153.480469 55.015625 C 153.757812 55.59375 154.046875 56.167969 154.355469 56.730469 C 154.664062 57.292969 154.988281 57.847656 155.332031 58.390625 C 155.671875 58.9375 156.027344 59.46875 156.398438 59.992188 C 156.769531 60.519531 157.15625 61.03125 157.554688 61.53125 C 157.957031 62.035156 158.371094 62.523438 158.800781 63 C 159.230469 63.476562 159.671875 63.941406 160.128906 64.394531 C 160.585938 64.847656 161.054688 65.285156 161.535156 65.710938 C 162.015625 66.136719 162.511719 66.546875 163.015625 66.941406 C 163.519531 67.339844 164.035156 67.71875 164.5625 68.085938 C 165.089844 68.453125 165.628906 68.804688 166.175781 69.140625 C 166.722656 69.476562 167.28125 69.796875 167.84375 70.097656 C 168.410156 70.402344 168.984375 70.691406 169.566406 70.960938 C 170.152344 71.230469 170.742188 71.484375 171.335938 71.71875 C 171.933594 71.957031 172.539062 72.175781 173.148438 72.375 C 173.757812 72.578125 174.371094 72.761719 174.992188 72.925781 C 175.613281 73.09375 176.238281 73.242188 176.867188 73.371094 C 177.496094 73.5 178.128906 73.613281 178.761719 73.703125 C 179.398438 73.796875 180.035156 73.871094 180.675781 73.929688 C 181.316406 73.984375 181.957031 74.023438 182.597656 74.042969 C 183.238281 74.0625 183.878906 74.0625 184.523438 74.046875 C 185.164062 74.027344 185.804688 73.992188 186.445312 73.9375 C 187.085938 73.882812 187.722656 73.808594 188.359375 73.71875 C 188.992188 73.625 189.625 73.515625 190.253906 73.390625 C 190.882812 73.261719 191.507812 73.113281 192.128906 72.949219 C 192.75 72.785156 193.367188 72.605469 193.976562 72.40625 Z M 194.019531 72.449219 " fill-opacity="1" fill-rule="nonzero"/><path fill="#7c3aed" d="M 357.445312 153.117188 C 356.789062 152.460938 356.105469 151.832031 355.394531 151.230469 C 354.6875 150.632812 353.953125 150.0625 353.195312 149.523438 C 352.4375 148.984375 351.660156 148.476562 350.863281 148.003906 C 350.0625 147.53125 349.246094 147.089844 348.410156 146.683594 C 347.574219 146.277344 346.71875 145.910156 345.855469 145.574219 C 344.988281 145.242188 344.105469 144.941406 343.214844 144.683594 C 342.324219 144.421875 341.421875 144.199219 340.511719 144.011719 C 339.601562 143.828125 338.683594 143.679688 337.761719 143.570312 C 336.835938 143.460938 335.910156 143.390625 334.984375 143.359375 C 334.054688 143.328125 333.125 143.335938 332.199219 143.382812 C 331.269531 143.429688 330.34375 143.511719 329.421875 143.636719 C 328.503906 143.761719 327.589844 143.921875 326.679688 144.121094 C 325.773438 144.320312 324.875 144.558594 323.988281 144.832031 C 323.101562 145.109375 322.226562 145.421875 321.363281 145.769531 C 320.5 146.117188 319.65625 146.5 318.828125 146.917969 C 317.996094 147.335938 317.1875 147.789062 316.394531 148.277344 C 315.601562 148.761719 314.832031 149.28125 314.082031 149.832031 C 313.335938 150.382812 312.609375 150.964844 311.910156 151.574219 C 311.210938 152.1875 310.539062 152.828125 309.890625 153.496094 C 309.246094 154.160156 308.628906 154.855469 308.039062 155.574219 C 307.453125 156.292969 306.894531 157.035156 306.367188 157.800781 C 305.839844 158.570312 305.347656 159.355469 304.886719 160.164062 C 304.425781 160.96875 304 161.792969 303.609375 162.636719 C 303.21875 163.480469 302.859375 164.335938 302.542969 165.210938 C 302.222656 166.082031 301.9375 166.96875 301.691406 167.863281 C 301.445312 168.757812 301.238281 169.664062 301.066406 170.578125 C 300.898438 171.492188 300.765625 172.410156 300.671875 173.335938 C 300.578125 174.261719 300.523438 175.1875 300.507812 176.117188 C 300.492188 177.046875 300.515625 177.972656 300.574219 178.902344 C 300.636719 179.828125 300.738281 180.75 300.875 181.671875 C 301.015625 182.589844 301.191406 183.5 301.40625 184.40625 C 301.621094 185.308594 301.875 186.203125 302.164062 187.085938 L 327.550781 170.394531 L 285.601562 212.34375 C 284.882812 211.875 284.152344 211.429688 283.410156 211.003906 C 282.664062 210.578125 281.910156 210.175781 281.140625 209.792969 C 280.371094 209.414062 279.59375 209.058594 278.804688 208.722656 C 278.015625 208.386719 277.21875 208.078125 276.410156 207.789062 C 275.601562 207.503906 274.789062 207.238281 273.964844 207 C 273.140625 206.761719 272.3125 206.546875 271.476562 206.359375 C 270.640625 206.167969 269.800781 206.003906 268.953125 205.863281 C 268.109375 205.722656 267.257812 205.609375 266.40625 205.519531 C 265.554688 205.429688 264.699219 205.363281 263.84375 205.324219 C 262.988281 205.285156 262.132812 205.273438 261.273438 205.285156 C 260.417969 205.296875 259.5625 205.332031 258.707031 205.394531 C 257.851562 205.457031 257 205.542969 256.152344 205.65625 C 255.300781 205.769531 254.457031 205.90625 253.613281 206.070312 C 252.773438 206.234375 251.9375 206.421875 251.105469 206.632812 C 250.277344 206.84375 249.453125 207.082031 248.636719 207.34375 C 247.820312 207.605469 247.011719 207.886719 246.210938 208.199219 C 245.414062 208.507812 244.621094 208.839844 243.84375 209.195312 C 243.0625 209.550781 242.292969 209.925781 241.539062 210.328125 C 240.78125 210.730469 240.035156 211.152344 239.300781 211.597656 C 238.570312 212.042969 237.851562 212.507812 237.148438 212.996094 C 236.441406 213.484375 235.753906 213.992188 235.078125 214.523438 C 234.402344 215.050781 233.746094 215.597656 233.101562 216.164062 C 232.460938 216.734375 231.835938 217.320312 231.226562 217.921875 C 230.621094 218.527344 230.03125 219.148438 229.460938 219.789062 C 228.890625 220.429688 228.339844 221.085938 227.804688 221.757812 C 227.273438 222.429688 226.761719 223.117188 226.269531 223.816406 C 225.78125 224.519531 225.308594 225.238281 224.859375 225.96875 C 224.414062 226.695312 223.984375 227.441406 223.582031 228.195312 C 223.175781 228.949219 222.792969 229.71875 222.433594 230.496094 C 222.074219 231.273438 221.738281 232.0625 221.425781 232.859375 C 221.113281 233.65625 220.824219 234.464844 220.558594 235.277344 C 220.292969 236.09375 220.054688 236.917969 219.835938 237.746094 C 219.621094 238.574219 219.429688 239.410156 219.261719 240.25 C 219.09375 241.089844 218.953125 241.9375 218.835938 242.785156 C 218.71875 243.632812 218.628906 244.484375 218.5625 245.339844 C 218.496094 246.195312 218.453125 247.050781 218.4375 247.90625 C 218.421875 248.765625 218.429688 249.621094 218.464844 250.476562 C 218.5 251.332031 218.5625 252.1875 218.644531 253.039062 C 218.730469 253.894531 218.84375 254.742188 218.976562 255.589844 C 219.113281 256.4375 219.273438 257.277344 219.460938 258.113281 C 219.644531 258.949219 219.855469 259.78125 220.089844 260.605469 C 220.324219 261.429688 220.585938 262.246094 220.867188 263.054688 C 221.152344 263.863281 221.457031 264.664062 221.789062 265.453125 C 222.117188 266.246094 222.472656 267.027344 222.847656 267.796875 C 223.226562 268.566406 223.625 269.324219 224.046875 270.070312 C 224.46875 270.816406 224.910156 271.550781 225.375 272.269531 C 225.839844 272.988281 226.324219 273.695312 226.832031 274.386719 C 227.339844 275.078125 227.867188 275.753906 228.414062 276.414062 C 228.960938 277.074219 229.523438 277.714844 230.109375 278.34375 C 230.695312 278.96875 231.296875 279.578125 231.917969 280.167969 C 232.539062 280.761719 233.175781 281.332031 233.832031 281.886719 C 234.484375 282.4375 235.15625 282.972656 235.84375 283.484375 C 236.527344 284 237.230469 284.492188 237.945312 284.964844 C 238.660156 285.433594 239.390625 285.886719 240.132812 286.316406 C 240.875 286.742188 241.628906 287.148438 242.394531 287.535156 C 243.160156 287.917969 243.9375 288.277344 244.722656 288.617188 C 245.511719 288.957031 246.308594 289.269531 247.113281 289.5625 C 247.921875 289.851562 248.734375 290.117188 249.558594 290.363281 C 250.378906 290.605469 251.207031 290.824219 252.042969 291.015625 C 252.878906 291.210938 253.71875 291.378906 254.5625 291.523438 C 255.40625 291.667969 256.253906 291.785156 257.105469 291.878906 C 257.960938 291.972656 258.8125 292.042969 259.667969 292.085938 C 260.523438 292.128906 261.382812 292.148438 262.238281 292.140625 C 263.09375 292.132812 263.953125 292.097656 264.808594 292.039062 C 265.660156 291.984375 266.515625 291.898438 267.363281 291.789062 C 268.214844 291.683594 269.0625 291.546875 269.902344 291.390625 C 270.746094 291.230469 271.582031 291.046875 272.414062 290.839844 C 273.246094 290.628906 274.070312 290.398438 274.886719 290.140625 C 275.703125 289.882812 276.515625 289.601562 277.316406 289.296875 C 278.117188 288.992188 278.90625 288.664062 279.6875 288.3125 C 280.46875 287.960938 281.242188 287.585938 282 287.1875 C 282.757812 286.792969 283.507812 286.371094 284.242188 285.929688 C 284.976562 285.488281 285.695312 285.027344 286.402344 284.542969 C 287.109375 284.058594 287.800781 283.550781 288.480469 283.027344 C 289.15625 282.5 289.816406 281.957031 290.460938 281.390625 C 291.109375 280.828125 291.734375 280.246094 292.347656 279.644531 C 292.957031 279.042969 293.546875 278.421875 294.121094 277.785156 C 294.695312 277.148438 295.25 276.496094 295.785156 275.828125 C 296.320312 275.15625 296.835938 274.472656 297.328125 273.773438 C 297.824219 273.074219 298.296875 272.359375 298.75 271.628906 C 299.203125 270.902344 299.632812 270.160156 300.042969 269.410156 C 300.449219 268.65625 300.835938 267.890625 301.199219 267.113281 C 301.5625 266.335938 301.902344 265.550781 302.21875 264.753906 C 302.535156 263.957031 302.828125 263.152344 303.097656 262.339844 C 303.367188 261.527344 303.609375 260.703125 303.832031 259.875 C 304.050781 259.046875 304.246094 258.214844 304.417969 257.375 C 304.589844 256.535156 304.734375 255.691406 304.855469 254.839844 C 304.976562 253.992188 305.074219 253.140625 305.144531 252.289062 C 305.214844 251.433594 305.257812 250.578125 305.277344 249.722656 C 305.296875 248.863281 305.292969 248.007812 305.261719 247.152344 C 305.230469 246.292969 305.175781 245.441406 305.09375 244.585938 C 305.011719 243.734375 304.90625 242.882812 304.773438 242.035156 C 304.644531 241.191406 304.488281 240.347656 304.304688 239.511719 C 304.125 238.671875 303.917969 237.839844 303.6875 237.015625 C 303.457031 236.191406 303.199219 235.371094 302.921875 234.5625 C 302.640625 233.75 302.339844 232.949219 302.011719 232.15625 L 269.949219 253.234375 L 298.21875 224.960938 L 317.484375 205.699219 C 318.351562 206.1875 319.242188 206.632812 320.148438 207.042969 C 321.058594 207.449219 321.984375 207.816406 322.925781 208.140625 C 323.867188 208.464844 324.820312 208.75 325.789062 208.988281 C 326.757812 209.226562 327.730469 209.421875 328.714844 209.574219 C 329.699219 209.726562 330.691406 209.832031 331.683594 209.898438 C 332.679688 209.960938 333.671875 209.980469 334.667969 209.953125 C 335.664062 209.925781 336.660156 209.855469 337.648438 209.742188 C 338.636719 209.628906 339.621094 209.46875 340.59375 209.265625 C 341.570312 209.0625 342.535156 208.816406 343.488281 208.527344 C 344.441406 208.238281 345.378906 207.90625 346.304688 207.535156 C 347.226562 207.160156 348.132812 206.746094 349.019531 206.292969 C 349.90625 205.839844 350.769531 205.34375 351.613281 204.8125 C 352.453125 204.28125 353.273438 203.714844 354.0625 203.109375 C 354.855469 202.503906 355.617188 201.863281 356.351562 201.191406 C 357.085938 200.519531 357.789062 199.8125 358.460938 199.078125 C 359.128906 198.339844 359.765625 197.574219 360.371094 196.78125 C 360.972656 195.988281 361.539062 195.171875 362.066406 194.328125 C 362.597656 193.484375 363.085938 192.617188 363.539062 191.730469 C 363.992188 190.839844 364.402344 189.933594 364.773438 189.011719 C 365.144531 188.085938 365.472656 187.144531 365.757812 186.191406 C 366.042969 185.238281 366.285156 184.273438 366.488281 183.296875 C 366.6875 182.320312 366.84375 181.335938 366.953125 180.347656 C 367.066406 179.359375 367.132812 178.363281 367.15625 177.367188 C 367.179688 176.371094 367.15625 175.378906 367.089844 174.382812 C 367.023438 173.390625 366.914062 172.402344 366.757812 171.417969 C 366.605469 170.433594 366.40625 169.457031 366.164062 168.492188 C 365.921875 167.523438 365.636719 166.570312 365.308594 165.628906 C 364.980469 164.691406 364.613281 163.765625 364.203125 162.859375 C 363.792969 161.949219 363.339844 161.0625 362.851562 160.195312 C 362.363281 159.328125 361.832031 158.484375 361.269531 157.664062 C 360.703125 156.84375 360.101562 156.050781 359.464844 155.285156 C 358.828125 154.519531 358.160156 153.78125 357.457031 153.074219 Z M 357.445312 153.117188 " fill-opacity="1" fill-rule="nonzero"/><path fill="#7c3aed" d="M 180.320312 302.433594 L 197.011719 327.824219 L 174.324219 305.136719 L 155.0625 285.871094 C 155.53125 285.15625 155.976562 284.425781 156.402344 283.679688 C 156.828125 282.933594 157.230469 282.179688 157.613281 281.410156 C 157.992188 280.644531 158.351562 279.863281 158.6875 279.074219 C 159.019531 278.285156 159.332031 277.488281 159.617188 276.679688 C 159.90625 275.871094 160.167969 275.054688 160.40625 274.234375 C 160.648438 273.410156 160.859375 272.578125 161.050781 271.742188 C 161.242188 270.90625 161.40625 270.066406 161.546875 269.222656 C 161.6875 268.375 161.800781 267.527344 161.890625 266.671875 C 161.980469 265.820312 162.046875 264.964844 162.085938 264.109375 C 162.125 263.253906 162.136719 262.398438 162.125 261.539062 C 162.113281 260.683594 162.078125 259.828125 162.015625 258.972656 C 161.953125 258.117188 161.867188 257.265625 161.753906 256.414062 C 161.640625 255.5625 161.503906 254.71875 161.339844 253.875 C 161.175781 253.035156 160.988281 252.199219 160.777344 251.367188 C 160.566406 250.539062 160.328125 249.714844 160.066406 248.898438 C 159.804688 248.082031 159.523438 247.273438 159.210938 246.472656 C 158.902344 245.671875 158.570312 244.882812 158.214844 244.101562 C 157.859375 243.324219 157.480469 242.554688 157.082031 241.796875 C 156.679688 241.039062 156.257812 240.292969 155.8125 239.5625 C 155.367188 238.828125 154.898438 238.109375 154.410156 237.40625 C 153.925781 236.699219 153.414062 236.011719 152.886719 235.335938 C 152.359375 234.660156 151.808594 234 151.242188 233.359375 C 150.675781 232.714844 150.089844 232.089844 149.484375 231.484375 C 148.878906 230.875 148.257812 230.285156 147.617188 229.714844 C 146.976562 229.144531 146.324219 228.59375 145.648438 228.0625 C 144.976562 227.527344 144.289062 227.015625 143.589844 226.527344 C 142.886719 226.035156 142.167969 225.566406 141.4375 225.117188 C 140.707031 224.667969 139.964844 224.238281 139.210938 223.835938 C 138.453125 223.429688 137.6875 223.046875 136.910156 222.6875 C 136.132812 222.328125 135.34375 221.992188 134.542969 221.679688 C 133.746094 221.367188 132.941406 221.078125 132.125 220.8125 C 131.308594 220.546875 130.488281 220.304688 129.65625 220.089844 C 128.828125 219.871094 127.992188 219.679688 127.152344 219.515625 C 126.3125 219.347656 125.464844 219.203125 124.617188 219.089844 C 123.765625 218.972656 122.914062 218.878906 122.0625 218.8125 C 121.207031 218.746094 120.351562 218.703125 119.492188 218.6875 C 118.636719 218.671875 117.777344 218.683594 116.921875 218.71875 C 116.066406 218.753906 115.210938 218.8125 114.359375 218.898438 C 113.503906 218.984375 112.65625 219.09375 111.808594 219.230469 C 110.960938 219.367188 110.121094 219.527344 109.285156 219.710938 C 108.445312 219.898438 107.617188 220.109375 106.792969 220.34375 C 105.964844 220.578125 105.148438 220.835938 104.339844 221.121094 C 103.53125 221.402344 102.730469 221.710938 101.941406 222.039062 C 101.148438 222.371094 100.367188 222.722656 99.597656 223.101562 C 98.828125 223.476562 98.070312 223.875 97.324219 224.296875 C 96.578125 224.71875 95.84375 225.164062 95.125 225.628906 C 94.402344 226.09375 93.699219 226.578125 93.007812 227.085938 C 92.316406 227.59375 91.640625 228.121094 90.980469 228.667969 C 90.320312 229.214844 89.675781 229.78125 89.046875 230.363281 C 88.421875 230.949219 87.8125 231.550781 87.222656 232.171875 C 86.628906 232.792969 86.058594 233.433594 85.503906 234.085938 C 84.953125 234.742188 84.417969 235.414062 83.90625 236.097656 C 83.390625 236.785156 82.898438 237.488281 82.425781 238.203125 C 81.953125 238.917969 81.503906 239.648438 81.074219 240.390625 C 80.644531 241.132812 80.238281 241.886719 79.855469 242.652344 C 79.472656 243.417969 79.109375 244.195312 78.773438 244.984375 C 78.433594 245.769531 78.117188 246.566406 77.828125 247.375 C 77.535156 248.179688 77.269531 248.996094 77.027344 249.816406 C 76.785156 250.640625 76.566406 251.46875 76.371094 252.304688 C 76.179688 253.136719 76.007812 253.980469 75.863281 254.824219 C 75.722656 255.667969 75.601562 256.515625 75.507812 257.371094 C 75.414062 258.222656 75.347656 259.074219 75.304688 259.933594 C 75.257812 260.789062 75.242188 261.644531 75.25 262.503906 C 75.257812 263.359375 75.289062 264.214844 75.347656 265.070312 C 75.40625 265.925781 75.488281 266.777344 75.597656 267.628906 C 75.707031 268.480469 75.839844 269.328125 76 270.167969 C 76.15625 271.011719 76.339844 271.847656 76.550781 272.679688 C 76.757812 273.511719 76.992188 274.335938 77.25 275.152344 C 77.503906 275.972656 77.785156 276.78125 78.089844 277.582031 C 78.398438 278.382812 78.726562 279.175781 79.078125 279.957031 C 79.429688 280.738281 79.804688 281.507812 80.203125 282.269531 C 80.597656 283.027344 81.019531 283.777344 81.460938 284.511719 C 81.902344 285.246094 82.367188 285.964844 82.851562 286.671875 C 83.335938 287.378906 83.839844 288.074219 84.363281 288.75 C 84.890625 289.425781 85.433594 290.089844 86 290.734375 C 86.566406 291.378906 87.148438 292.007812 87.75 292.617188 C 88.351562 293.226562 88.972656 293.820312 89.609375 294.394531 C 90.246094 294.96875 90.898438 295.523438 91.566406 296.058594 C 92.238281 296.59375 92.921875 297.109375 93.621094 297.601562 C 94.324219 298.097656 95.035156 298.570312 95.765625 299.023438 C 96.492188 299.476562 97.234375 299.90625 97.988281 300.316406 C 98.742188 300.722656 99.507812 301.109375 100.285156 301.472656 C 101.058594 301.835938 101.847656 302.175781 102.644531 302.492188 C 103.441406 302.808594 104.246094 303.101562 105.058594 303.371094 C 105.875 303.640625 106.695312 303.882812 107.523438 304.105469 C 108.351562 304.324219 109.1875 304.519531 110.027344 304.691406 C 110.867188 304.863281 111.710938 305.007812 112.558594 305.128906 C 113.40625 305.25 114.257812 305.347656 115.113281 305.417969 C 115.96875 305.488281 116.824219 305.53125 117.679688 305.550781 C 118.539062 305.570312 119.394531 305.566406 120.25 305.535156 C 121.109375 305.503906 121.964844 305.449219 122.816406 305.367188 C 123.671875 305.285156 124.519531 305.179688 125.367188 305.046875 C 126.214844 304.914062 127.058594 304.757812 127.894531 304.578125 C 128.734375 304.394531 129.5625 304.1875 130.390625 303.957031 C 131.214844 303.726562 132.035156 303.472656 132.84375 303.191406 C 133.65625 302.914062 134.457031 302.609375 135.25 302.285156 L 114.160156 270.21875 L 142.445312 298.492188 L 161.695312 317.753906 C 161.378906 318.3125 161.078125 318.882812 160.796875 319.457031 C 160.511719 320.035156 160.246094 320.617188 159.996094 321.210938 C 159.746094 321.800781 159.511719 322.402344 159.296875 323.007812 C 159.082031 323.613281 158.882812 324.222656 158.703125 324.839844 C 158.523438 325.457031 158.359375 326.078125 158.214844 326.703125 C 158.070312 327.328125 157.945312 327.960938 157.835938 328.59375 C 157.730469 329.226562 157.640625 329.863281 157.570312 330.5 C 157.496094 331.140625 157.445312 331.78125 157.410156 332.421875 C 157.375 333.0625 157.359375 333.703125 157.363281 334.347656 C 157.367188 334.988281 157.386719 335.632812 157.429688 336.273438 C 157.46875 336.914062 157.527344 337.554688 157.601562 338.191406 C 157.679688 338.832031 157.777344 339.464844 157.890625 340.097656 C 158.003906 340.730469 158.132812 341.359375 158.285156 341.984375 C 158.433594 342.609375 158.601562 343.226562 158.789062 343.84375 C 158.972656 344.457031 159.175781 345.066406 159.398438 345.671875 C 159.617188 346.273438 159.855469 346.871094 160.113281 347.460938 C 160.367188 348.050781 160.640625 348.632812 160.929688 349.207031 C 161.21875 349.78125 161.523438 350.34375 161.84375 350.902344 C 162.167969 351.457031 162.503906 352.003906 162.855469 352.539062 C 163.210938 353.078125 163.578125 353.605469 163.960938 354.121094 C 164.34375 354.636719 164.742188 355.140625 165.15625 355.632812 C 165.570312 356.125 165.996094 356.605469 166.4375 357.070312 C 166.875 357.539062 167.328125 357.996094 167.796875 358.4375 C 168.261719 358.878906 168.742188 359.304688 169.234375 359.71875 C 169.726562 360.132812 170.226562 360.53125 170.742188 360.917969 C 171.257812 361.304688 171.78125 361.671875 172.316406 362.027344 C 172.855469 362.382812 173.398438 362.722656 173.953125 363.042969 C 174.511719 363.367188 175.074219 363.675781 175.648438 363.964844 C 176.222656 364.253906 176.800781 364.527344 177.390625 364.785156 C 177.980469 365.042969 178.574219 365.28125 179.179688 365.503906 C 179.78125 365.726562 180.390625 365.933594 181.003906 366.121094 C 181.621094 366.308594 182.238281 366.476562 182.863281 366.628906 C 183.488281 366.78125 184.117188 366.914062 184.75 367.027344 C 185.378906 367.144531 186.015625 367.242188 186.652344 367.320312 C 187.289062 367.398438 187.929688 367.457031 188.570312 367.5 C 189.210938 367.542969 189.855469 367.5625 190.496094 367.570312 C 191.140625 367.574219 191.78125 367.558594 192.421875 367.527344 C 193.066406 367.496094 193.707031 367.445312 194.34375 367.375 C 194.984375 367.304688 195.617188 367.21875 196.253906 367.109375 C 196.886719 367.003906 197.515625 366.878906 198.144531 366.738281 C 198.769531 366.59375 199.390625 366.433594 200.007812 366.253906 C 200.625 366.078125 201.238281 365.882812 201.84375 365.667969 C 202.449219 365.453125 203.046875 365.222656 203.640625 364.972656 C 204.234375 364.726562 204.820312 364.460938 205.394531 364.175781 C 205.972656 363.894531 206.542969 363.597656 207.101562 363.28125 C 207.660156 362.964844 208.210938 362.636719 208.753906 362.289062 C 209.292969 361.941406 209.824219 361.578125 210.34375 361.203125 C 210.863281 360.824219 211.371094 360.433594 211.871094 360.023438 C 212.367188 359.617188 212.851562 359.195312 213.324219 358.761719 C 213.796875 358.328125 214.257812 357.878906 214.707031 357.417969 C 215.152344 356.957031 215.585938 356.480469 216.003906 355.996094 C 216.425781 355.507812 216.832031 355.011719 217.222656 354.5 C 217.613281 353.992188 217.988281 353.46875 218.347656 352.9375 C 218.710938 352.40625 219.054688 351.863281 219.382812 351.3125 C 219.714844 350.761719 220.027344 350.199219 220.324219 349.632812 C 220.621094 349.0625 220.902344 348.484375 221.167969 347.898438 C 221.429688 347.3125 221.675781 346.71875 221.90625 346.117188 C 222.136719 345.519531 222.347656 344.914062 222.542969 344.300781 C 222.738281 343.6875 222.914062 343.070312 223.070312 342.449219 C 223.230469 341.824219 223.371094 341.199219 223.496094 340.566406 C 223.617188 339.9375 223.722656 339.304688 223.808594 338.667969 C 223.894531 338.03125 223.960938 337.390625 224.011719 336.75 C 224.058594 336.109375 224.089844 335.46875 224.101562 334.824219 C 224.113281 334.183594 224.109375 333.539062 224.082031 332.898438 C 224.058594 332.257812 224.015625 331.617188 223.953125 330.976562 C 223.890625 330.335938 223.808594 329.699219 223.710938 329.066406 C 223.613281 328.429688 223.496094 327.796875 223.359375 327.167969 C 223.222656 326.542969 223.070312 325.917969 222.898438 325.296875 C 222.726562 324.679688 222.539062 324.066406 222.332031 323.457031 C 222.125 322.847656 221.902344 322.246094 221.660156 321.652344 C 221.417969 321.054688 221.160156 320.46875 220.882812 319.886719 C 220.609375 319.308594 220.316406 318.734375 220.007812 318.171875 C 219.699219 317.609375 219.375 317.054688 219.035156 316.507812 C 218.695312 315.964844 218.339844 315.429688 217.964844 314.90625 C 217.59375 314.382812 217.207031 313.867188 216.808594 313.367188 C 216.40625 312.863281 215.992188 312.375 215.5625 311.894531 C 215.132812 311.417969 214.691406 310.953125 214.234375 310.5 C 213.777344 310.046875 213.308594 309.609375 212.828125 309.183594 C 212.34375 308.757812 211.851562 308.347656 211.347656 307.949219 C 210.839844 307.554688 210.324219 307.171875 209.796875 306.804688 C 209.269531 306.4375 208.730469 306.085938 208.183594 305.75 C 207.636719 305.414062 207.078125 305.09375 206.511719 304.789062 C 205.945312 304.488281 205.371094 304.199219 204.789062 303.929688 C 204.207031 303.660156 203.617188 303.40625 203.019531 303.167969 C 202.421875 302.933594 201.816406 302.710938 201.207031 302.511719 C 200.597656 302.308594 199.984375 302.125 199.363281 301.960938 C 198.742188 301.792969 198.117188 301.644531 197.488281 301.515625 C 196.859375 301.386719 196.226562 301.273438 195.589844 301.179688 C 194.953125 301.085938 194.316406 301.011719 193.675781 300.957031 C 193.035156 300.898438 192.394531 300.859375 191.753906 300.839844 C 191.109375 300.820312 190.46875 300.820312 189.824219 300.839844 C 189.183594 300.855469 188.542969 300.890625 187.902344 300.945312 C 187.261719 301 186.625 301.074219 185.988281 301.164062 C 185.351562 301.257812 184.71875 301.367188 184.089844 301.492188 C 183.460938 301.621094 182.832031 301.769531 182.210938 301.933594 C 181.589844 302.097656 180.976562 302.277344 180.363281 302.476562 Z M 180.320312 302.433594 " fill-opacity="1" fill-rule="nonzero"/><path fill="#7c3aed" d="M 46.789062 204.488281 L 88.738281 162.539062 C 89.457031 163.007812 90.1875 163.453125 90.933594 163.878906 C 91.675781 164.304688 92.433594 164.707031 93.199219 165.089844 C 93.96875 165.46875 94.746094 165.828125 95.535156 166.160156 C 96.324219 166.496094 97.125 166.804688 97.929688 167.09375 C 98.738281 167.378906 99.554688 167.644531 100.375 167.882812 C 101.199219 168.121094 102.027344 168.335938 102.863281 168.527344 C 103.699219 168.714844 104.542969 168.878906 105.386719 169.019531 C 106.234375 169.160156 107.082031 169.273438 107.933594 169.363281 C 108.785156 169.453125 109.640625 169.519531 110.496094 169.558594 C 111.351562 169.597656 112.210938 169.609375 113.066406 169.597656 C 113.921875 169.585938 114.78125 169.550781 115.632812 169.488281 C 116.488281 169.425781 117.339844 169.339844 118.191406 169.226562 C 119.039062 169.113281 119.886719 168.976562 120.726562 168.8125 C 121.570312 168.652344 122.40625 168.464844 123.234375 168.25 C 124.066406 168.039062 124.890625 167.800781 125.707031 167.539062 C 126.523438 167.28125 127.328125 166.996094 128.128906 166.6875 C 128.929688 166.378906 129.71875 166.046875 130.5 165.691406 C 131.277344 165.335938 132.046875 164.957031 132.804688 164.554688 C 133.5625 164.152344 134.304688 163.730469 135.039062 163.285156 C 135.769531 162.839844 136.488281 162.375 137.195312 161.886719 C 137.898438 161.398438 138.589844 160.890625 139.261719 160.363281 C 139.9375 159.832031 140.597656 159.285156 141.238281 158.71875 C 141.882812 158.148438 142.507812 157.5625 143.113281 156.960938 C 143.722656 156.355469 144.308594 155.734375 144.882812 155.09375 C 145.453125 154.453125 146.003906 153.796875 146.535156 153.125 C 147.066406 152.453125 147.578125 151.765625 148.070312 151.066406 C 148.5625 150.363281 149.03125 149.648438 149.480469 148.917969 C 149.929688 148.1875 150.355469 147.445312 150.761719 146.6875 C 151.164062 145.933594 151.546875 145.167969 151.90625 144.386719 C 152.265625 143.609375 152.601562 142.820312 152.914062 142.023438 C 153.226562 141.226562 153.515625 140.417969 153.78125 139.605469 C 154.046875 138.789062 154.289062 137.96875 154.503906 137.136719 C 154.71875 136.308594 154.914062 135.472656 155.078125 134.632812 C 155.246094 133.792969 155.386719 132.949219 155.503906 132.097656 C 155.621094 131.25 155.714844 130.398438 155.78125 129.542969 C 155.847656 128.6875 155.886719 127.832031 155.902344 126.976562 C 155.917969 126.121094 155.910156 125.261719 155.875 124.40625 C 155.839844 123.550781 155.78125 122.695312 155.695312 121.84375 C 155.609375 120.988281 155.5 120.140625 155.363281 119.292969 C 155.226562 118.449219 155.066406 117.605469 154.882812 116.769531 C 154.695312 115.933594 154.484375 115.101562 154.25 114.277344 C 154.015625 113.453125 153.757812 112.636719 153.472656 111.828125 C 153.191406 111.019531 152.882812 110.21875 152.554688 109.429688 C 152.222656 108.636719 151.871094 107.859375 151.492188 107.085938 C 151.117188 106.316406 150.71875 105.558594 150.296875 104.8125 C 149.875 104.066406 149.429688 103.335938 148.964844 102.613281 C 148.5 101.894531 148.015625 101.1875 147.507812 100.496094 C 147.003906 99.804688 146.476562 99.128906 145.929688 98.46875 C 145.382812 97.808594 144.816406 97.167969 144.230469 96.539062 C 143.648438 95.914062 143.042969 95.304688 142.421875 94.714844 C 141.800781 94.125 141.164062 93.550781 140.507812 93 C 139.855469 92.445312 139.183594 91.910156 138.5 91.398438 C 137.8125 90.886719 137.109375 90.390625 136.394531 89.921875 C 135.679688 89.449219 134.953125 88.996094 134.210938 88.570312 C 133.46875 88.140625 132.714844 87.734375 131.945312 87.351562 C 131.179688 86.964844 130.402344 86.605469 129.617188 86.265625 C 128.828125 85.929688 128.03125 85.613281 127.226562 85.324219 C 126.421875 85.03125 125.605469 84.765625 124.785156 84.523438 C 123.960938 84.277344 123.132812 84.0625 122.296875 83.867188 C 121.464844 83.671875 120.625 83.503906 119.777344 83.359375 C 118.933594 83.214844 118.085938 83.097656 117.234375 83.003906 C 116.382812 82.910156 115.527344 82.839844 114.671875 82.796875 C 113.816406 82.753906 112.960938 82.738281 112.101562 82.746094 C 111.246094 82.75 110.390625 82.785156 109.535156 82.84375 C 108.679688 82.902344 107.828125 82.984375 106.976562 83.09375 C 106.125 83.203125 105.28125 83.335938 104.4375 83.492188 C 103.597656 83.652344 102.757812 83.835938 101.929688 84.042969 C 101.097656 84.253906 100.273438 84.484375 99.453125 84.742188 C 98.636719 85 97.828125 85.28125 97.027344 85.585938 C 96.226562 85.890625 95.433594 86.21875 94.652344 86.570312 C 93.871094 86.921875 93.101562 87.296875 92.339844 87.695312 C 91.582031 88.09375 90.835938 88.511719 90.101562 88.953125 C 89.367188 89.394531 88.644531 89.859375 87.9375 90.34375 C 87.230469 90.828125 86.539062 91.332031 85.863281 91.855469 C 85.183594 92.382812 84.523438 92.925781 83.878906 93.492188 C 83.234375 94.054688 82.605469 94.640625 81.996094 95.242188 C 81.386719 95.84375 80.792969 96.460938 80.21875 97.097656 C 79.644531 97.734375 79.089844 98.386719 78.554688 99.058594 C 78.019531 99.726562 77.507812 100.410156 77.011719 101.109375 C 76.515625 101.8125 76.042969 102.523438 75.589844 103.253906 C 75.140625 103.980469 74.707031 104.722656 74.300781 105.476562 C 73.890625 106.230469 73.503906 106.992188 73.140625 107.769531 C 72.777344 108.546875 72.4375 109.332031 72.121094 110.128906 C 71.804688 110.925781 71.511719 111.730469 71.246094 112.542969 C 70.976562 113.359375 70.730469 114.179688 70.511719 115.007812 C 70.289062 115.835938 70.09375 116.667969 69.921875 117.507812 C 69.753906 118.347656 69.605469 119.195312 69.484375 120.042969 C 69.363281 120.890625 69.269531 121.742188 69.199219 122.597656 C 69.128906 123.449219 69.082031 124.304688 69.0625 125.164062 C 69.042969 126.019531 69.046875 126.875 69.078125 127.730469 C 69.109375 128.589844 69.164062 129.445312 69.246094 130.296875 C 69.328125 131.148438 69.433594 132 69.566406 132.847656 C 69.699219 133.695312 69.855469 134.535156 70.035156 135.375 C 70.21875 136.210938 70.425781 137.042969 70.65625 137.867188 C 70.886719 138.695312 71.140625 139.511719 71.417969 140.320312 C 71.699219 141.132812 72.003906 141.933594 72.328125 142.726562 L 104.394531 121.648438 L 56.859375 169.183594 C 56.300781 168.867188 55.730469 168.566406 55.15625 168.285156 C 54.578125 168 53.996094 167.734375 53.402344 167.484375 C 52.8125 167.234375 52.210938 167 51.605469 166.785156 C 51.003906 166.570312 50.390625 166.375 49.773438 166.195312 C 49.15625 166.011719 48.535156 165.851562 47.910156 165.707031 C 47.285156 165.5625 46.65625 165.4375 46.023438 165.328125 C 45.386719 165.222656 44.753906 165.132812 44.113281 165.0625 C 43.476562 164.992188 42.835938 164.9375 42.195312 164.902344 C 41.554688 164.871094 40.910156 164.855469 40.269531 164.859375 C 39.625 164.859375 38.984375 164.882812 38.34375 164.921875 C 37.703125 164.960938 37.0625 165.019531 36.425781 165.097656 C 35.789062 165.175781 35.152344 165.269531 34.519531 165.382812 C 33.886719 165.5 33.261719 165.628906 32.636719 165.78125 C 32.011719 165.929688 31.390625 166.097656 30.777344 166.285156 C 30.160156 166.46875 29.550781 166.671875 28.949219 166.894531 C 28.347656 167.117188 27.75 167.355469 27.160156 167.609375 C 26.570312 167.863281 25.988281 168.136719 25.417969 168.425781 C 24.84375 168.714844 24.277344 169.019531 23.722656 169.34375 C 23.164062 169.664062 22.621094 170 22.082031 170.355469 C 21.546875 170.707031 21.019531 171.074219 20.503906 171.460938 C 19.988281 171.84375 19.484375 172.242188 18.992188 172.652344 C 18.5 173.066406 18.023438 173.492188 17.554688 173.933594 C 17.085938 174.375 16.632812 174.828125 16.191406 175.292969 C 15.75 175.761719 15.320312 176.238281 14.90625 176.730469 C 14.496094 177.222656 14.09375 177.726562 13.710938 178.238281 C 13.324219 178.753906 12.957031 179.277344 12.601562 179.816406 C 12.246094 180.351562 11.910156 180.894531 11.585938 181.453125 C 11.261719 182.007812 10.957031 182.570312 10.667969 183.144531 C 10.375 183.71875 10.101562 184.296875 9.847656 184.886719 C 9.589844 185.476562 9.351562 186.070312 9.128906 186.675781 C 8.90625 187.277344 8.699219 187.886719 8.511719 188.5 C 8.328125 189.113281 8.15625 189.734375 8.007812 190.359375 C 7.855469 190.980469 7.722656 191.609375 7.605469 192.242188 C 7.492188 192.875 7.394531 193.507812 7.316406 194.148438 C 7.238281 194.785156 7.175781 195.421875 7.136719 196.0625 C 7.09375 196.707031 7.070312 197.347656 7.066406 197.988281 C 7.0625 198.632812 7.078125 199.273438 7.109375 199.914062 C 7.140625 200.554688 7.195312 201.195312 7.261719 201.835938 C 7.332031 202.472656 7.421875 203.109375 7.527344 203.742188 C 7.632812 204.375 7.757812 205.007812 7.902344 205.632812 C 8.042969 206.257812 8.203125 206.878906 8.382812 207.496094 C 8.5625 208.113281 8.757812 208.726562 8.972656 209.332031 C 9.1875 209.9375 9.417969 210.535156 9.664062 211.128906 C 9.914062 211.722656 10.179688 212.304688 10.460938 212.882812 C 10.746094 213.460938 11.042969 214.027344 11.359375 214.585938 C 11.671875 215.148438 12.003906 215.699219 12.351562 216.238281 C 12.699219 216.777344 13.0625 217.308594 13.4375 217.828125 C 13.816406 218.347656 14.207031 218.855469 14.613281 219.351562 C 15.023438 219.851562 15.441406 220.335938 15.878906 220.808594 C 16.3125 221.28125 16.761719 221.742188 17.222656 222.1875 C 17.683594 222.632812 18.15625 223.066406 18.644531 223.488281 C 19.132812 223.90625 19.628906 224.3125 20.140625 224.703125 C 20.648438 225.09375 21.167969 225.46875 21.703125 225.828125 C 22.234375 226.1875 22.773438 226.535156 23.324219 226.863281 C 23.878906 227.191406 24.4375 227.503906 25.007812 227.800781 C 25.578125 228.097656 26.15625 228.378906 26.742188 228.644531 C 27.328125 228.90625 27.917969 229.152344 28.519531 229.382812 C 29.121094 229.613281 29.726562 229.824219 30.339844 230.019531 C 30.949219 230.210938 31.566406 230.386719 32.191406 230.546875 C 32.8125 230.707031 33.4375 230.847656 34.070312 230.96875 C 34.699219 231.089844 35.332031 231.195312 35.96875 231.28125 C 36.605469 231.367188 37.246094 231.433594 37.886719 231.484375 C 38.527344 231.53125 39.167969 231.5625 39.808594 231.574219 C 40.453125 231.585938 41.09375 231.578125 41.734375 231.554688 C 42.378906 231.527344 43.019531 231.484375 43.65625 231.421875 C 44.296875 231.359375 44.933594 231.28125 45.570312 231.183594 C 46.203125 231.082031 46.835938 230.964844 47.460938 230.828125 C 48.089844 230.695312 48.714844 230.542969 49.332031 230.371094 C 49.953125 230.199219 50.566406 230.007812 51.171875 229.800781 C 51.78125 229.59375 52.382812 229.371094 52.980469 229.128906 C 53.574219 228.886719 54.160156 228.628906 54.742188 228.351562 C 55.320312 228.078125 55.894531 227.785156 56.457031 227.476562 C 57.019531 227.167969 57.574219 226.84375 58.117188 226.503906 C 58.664062 226.164062 59.199219 225.804688 59.722656 225.433594 C 60.246094 225.0625 60.757812 224.675781 61.261719 224.277344 C 61.761719 223.875 62.25 223.460938 62.730469 223.03125 C 63.207031 222.601562 63.671875 222.15625 64.125 221.703125 C 64.578125 221.246094 65.015625 220.777344 65.441406 220.296875 C 65.867188 219.8125 66.277344 219.320312 66.671875 218.816406 C 67.070312 218.308594 67.449219 217.792969 67.816406 217.265625 C 68.183594 216.738281 68.535156 216.199219 68.871094 215.652344 C 69.207031 215.105469 69.527344 214.546875 69.832031 213.984375 C 70.132812 213.417969 70.421875 212.84375 70.691406 212.257812 C 70.960938 211.675781 71.214844 211.085938 71.449219 210.488281 C 71.6875 209.890625 71.90625 209.289062 72.105469 208.679688 C 72.308594 208.070312 72.492188 207.453125 72.65625 206.832031 C 72.824219 206.210938 72.972656 205.585938 73.101562 204.957031 C 73.230469 204.328125 73.34375 203.695312 73.4375 203.0625 C 73.527344 202.425781 73.605469 201.789062 73.660156 201.148438 C 73.71875 200.507812 73.753906 199.867188 73.773438 199.226562 C 73.792969 198.582031 73.792969 197.941406 73.777344 197.300781 C 73.757812 196.65625 73.722656 196.015625 73.667969 195.375 C 73.613281 194.734375 73.539062 194.097656 73.449219 193.460938 C 73.355469 192.828125 73.246094 192.195312 73.117188 191.5625 C 72.992188 190.933594 72.84375 190.308594 72.679688 189.6875 C 72.515625 189.066406 72.335938 188.453125 72.132812 187.839844 Z M 46.789062 204.488281 " fill-opacity="1" fill-rule="nonzero"/></svg>